<?xml version="1.0" encoding="UTF-8"?>
<svg version="1.1" xmlns="http://www.w3.org/2000/svg" width="640" height="183">
<path d="M0 0 C18.3263766 14.45902336 28.96102133 34.36981078 31.7109375 57.5625 C33.06869312 80.30490669 26.93329584 101.704054 11.90649414 119.13964844 C2.6812941 129.46405589 -9.74770846 140.68405383 -24.0390625 141.875 C-29.46130767 141.78412438 -33.93378041 139.79535406 -37.8671875 136.06640625 C-42.4569626 130.77761368 -42.63535453 126.25169935 -42.5703125 119.51171875 C-42.08384804 114.41059838 -39.76773277 111.81387467 -35.9765625 108.60546875 C-33.3923063 106.6409833 -30.77458203 105.01493909 -27.9765625 103.375 C-16.82344646 96.31986603 -10.35959029 86.31804055 -7.2890625 73.5625 C-6.18634698 59.51361785 -8.45559071 49.28120579 -16.2890625 37.5625 C-16.8665625 36.675625 -17.4440625 35.78875 -18.0390625 34.875 C-27.54779385 25.10213722 -39.406372 20.49971517 -52.8515625 20.25 C-65.681645 20.23682292 -76.80738779 24.75969181 -86.35546875 33.44140625 C-96.16217709 43.92590005 -98.91113439 56.18751409 -98.6015625 70.10546875 C-98.02769357 81.47524689 -92.24281536 91.11052644 -84.0390625 98.75 C-80.1305752 102.08409812 -75.97622988 104.58183837 -71.52734375 107.12109375 C-67.42274072 109.76437214 -64.8475112 112.8871539 -63.2890625 117.5625 C-62.59140045 124.744988 -62.89370046 129.74161514 -67.2890625 135.5625 C-71.55800794 139.71910477 -75.66756067 141.26001902 -81.5390625 141.9375 C-97.03909688 140.38749656 -110.95640724 127.3528677 -120.5703125 115.90234375 C-134.44711453 97.01097008 -139.77327137 74.83452659 -136.7890625 51.68359375 C-132.41466389 29.43878263 -120.51132313 10.07281457 -101.80493164 -2.93701172 C-70.69376264 -23.59452819 -30.02149783 -22.70563077 0 0 Z " fill="#00AA12" transform="translate(148.2890625,28.4375)"/>
<path d="M0 0 C0.33 -1.32 0.66 -2.64 1 -4 C7.93 -4 14.86 -4 22 -4 C22.0905941 8.06608819 22.16388489 20.13194816 22.20724869 32.19830036 C22.22806768 37.80200717 22.25628115 43.40546795 22.30175781 49.0090332 C22.34541869 54.42312709 22.36917983 59.83698525 22.37950897 65.25124168 C22.38686411 67.31038304 22.4012265 69.36951241 22.42292023 71.42855263 C22.58430598 87.39019122 21.40724869 99.15940396 9.96484375 111.12890625 C-0.09395373 120.76193452 -11.12043281 122.41970663 -24.5703125 122.2109375 C-39.09108153 121.70592149 -50.66450812 116.00973139 -61 106 C-60.55085263 101.62342444 -57.65308771 99.13774185 -54.6875 96.1875 C-53.95756836 95.4150293 -53.95756836 95.4150293 -53.21289062 94.62695312 C-51.76171875 93.16796875 -51.76171875 93.16796875 -49 91 C-45.65936899 90.9938704 -43.8415425 92.76531897 -41.375 94.875 C-34.59570943 100.10725394 -26.48608823 102.08491146 -18 101 C-10.71241764 99.46137786 -6.90729581 96.63411976 -2.25 90.8125 C-0.40817717 86.66839864 -0.252945 82.49195423 0 78 C-0.969375 78.61875 -1.93875 79.2375 -2.9375 79.875 C-12.21447744 85.09677173 -24.09264787 85.59273946 -34.25 82.8125 C-47.20936147 78.31768095 -55.43281389 70.96044517 -62 59 C-67.64570452 46.98742433 -67.43294652 33.37530904 -63 21 C-57.0056829 7.91625018 -47.10860378 0.23477161 -33.87890625 -4.80859375 C-22.84292859 -8.13544772 -9.58004213 -6.38669475 0 0 Z M-40.59375 24.08984375 C-45.04992313 30.14281225 -45.83359509 36.63853346 -45 44 C-43.67785445 50.61072773 -40.15957865 54.80784235 -35 59 C-30.05049917 62.29966722 -24.8851556 63.2600216 -19 63 C-11.31594428 61.373866 -6.27649789 57.50978013 -2 51 C1.24082959 45.02761404 2.03127489 39.11861357 0.37890625 32.51953125 C-1.84950224 25.97296231 -5.14838996 21.70876693 -11 18 C-21.91078745 12.90829919 -32.43598508 15.02779829 -40.59375 24.08984375 Z " fill="#444444" transform="translate(284,50)"/>
<path d="M0 0 C0.98226562 0.79470703 0.98226562 0.79470703 1.984375 1.60546875 C2.59796875 2.08371094 3.2115625 2.56195313 3.84375 3.0546875 C11.63193417 9.89519439 16.16150086 20.67262279 17.890625 30.71484375 C18.03025366 35.0200607 17.41298534 39.31936536 16.984375 43.60546875 C-4.465625 43.60546875 -25.915625 43.60546875 -48.015625 43.60546875 C-41.93945562 54.08466935 -41.93945562 54.08466935 -32.00390625 59.20703125 C-25.39366129 60.53167759 -20.92277344 59.5047509 -14.99609375 56.578125 C-13.015625 55.60546875 -13.015625 55.60546875 -10.015625 54.60546875 C-8.92396225 52.67216272 -8.92396225 52.67216272 -8.015625 50.60546875 C-7.355625 49.94546875 -6.695625 49.28546875 -6.015625 48.60546875 C-1.94217896 48.8950945 1.37792116 51.53237889 4.734375 53.66796875 C5.33636719 54.04501953 5.93835938 54.42207031 6.55859375 54.81054688 C8.03686643 55.73740038 9.51103589 56.67079264 10.984375 57.60546875 C10.02623931 64.44253575 5.78138375 68.2876839 0.61328125 72.5703125 C-4.66076387 76.46208058 -9.66428375 79.01125659 -16.015625 80.60546875 C-16.82 80.83234375 -17.624375 81.05921875 -18.453125 81.29296875 C-31.09886718 82.83513243 -42.73305001 80.28705513 -53.015625 72.60546875 C-62.64346483 64.4328033 -68.72043897 54.29829188 -70.015625 41.60546875 C-70.92891805 29.24259941 -67.79286976 16.64681228 -59.85546875 6.97265625 C-43.86511006 -10.00601304 -19.53284285 -14.4357689 0 0 Z M-44.078125 20.73046875 C-46.12744393 23.49436242 -46.12744393 23.49436242 -47.015625 26.60546875 C-33.155625 26.60546875 -19.295625 26.60546875 -5.015625 26.60546875 C-8.45537792 20.11165739 -8.45537792 20.11165739 -13.515625 16.23046875 C-14.2684375 15.74835938 -15.02125 15.26625 -15.796875 14.76953125 C-25.44256481 9.70894047 -37.0364748 12.61329272 -44.078125 20.73046875 Z " fill="#444444" transform="translate(516.015625,52.39453125)"/>
<path d="M0 0 C1.27423828 -0.00193359 1.27423828 -0.00193359 2.57421875 -0.00390625 C3.91419922 0.00189453 3.91419922 0.00189453 5.28125 0.0078125 C6.17457031 0.00394531 7.06789063 0.00007813 7.98828125 -0.00390625 C8.83777344 -0.00261719 9.68726563 -0.00132813 10.5625 0 C11.34689453 0.00112793 12.13128906 0.00225586 12.93945312 0.00341797 C14.78125 0.1328125 14.78125 0.1328125 15.78125 1.1328125 C15.90462174 2.97313239 15.95916308 4.81810661 15.98657227 6.66235352 C16.00651749 7.84350235 16.02646271 9.02465118 16.04701233 10.24159241 C16.06372482 11.5269841 16.08043732 12.81237579 16.09765625 14.13671875 C16.11843735 15.44487045 16.13921844 16.75302216 16.16062927 18.10081482 C16.215913 21.58436697 16.26529431 25.0679791 16.31347656 28.55163574 C16.36364574 32.1041398 16.41935567 35.6565564 16.47460938 39.20898438 C16.58226791 46.18351796 16.68369567 53.15813048 16.78125 60.1328125 C17.63428711 59.13314453 18.48732422 58.13347656 19.36621094 57.10351562 C46.01765797 26.28841867 46.01765797 26.28841867 58.20703125 24.94140625 C64.87152859 24.72164266 71.32397489 25.48055733 77.78125 27.1328125 C76.46933355 30.04409897 75.08010167 32.06598379 72.78442383 34.27734375 C72.18072464 34.86475342 71.57702545 35.45216309 70.95503235 36.05737305 C70.30600449 36.68039307 69.65697662 37.30341309 68.98828125 37.9453125 C67.62262755 39.28082135 66.25740597 40.61677218 64.89257812 41.953125 C62.73787607 44.05188317 60.57953277 46.14650918 58.41333008 48.23339844 C56.32308952 50.25136563 54.2485957 52.28447124 52.17578125 54.3203125 C51.52068069 54.94333252 50.86558014 55.56635254 50.19062805 56.20825195 C49.29926399 57.08936646 49.29926399 57.08936646 48.38989258 57.98828125 C47.8607576 58.50028076 47.33162262 59.01228027 46.78645325 59.53979492 C45.55416222 61.11760165 45.55416222 61.11760165 46.05041504 63.21653748 C46.8669831 65.35760772 47.87273093 66.94694089 49.23046875 68.79296875 C49.742146 69.49494385 50.25382324 70.19691895 50.78100586 70.92016602 C51.33796143 71.67096436 51.89491699 72.4217627 52.46875 73.1953125 C53.04310791 73.980271 53.61746582 74.76522949 54.20922852 75.57397461 C56.05947196 78.09889799 57.91907859 80.61667564 59.78125 83.1328125 C61.65710403 85.67016211 63.53285778 88.20758288 65.4074707 90.74584961 C66.58037215 92.33200949 67.75582916 93.91628414 68.93432617 95.49829102 C79.78125 110.12348266 79.78125 110.12348266 79.78125 113.1328125 C58.95076149 115.80307814 58.95076149 115.80307814 52.62890625 111.75439453 C48.93384278 107.94935894 46.58196753 103.33731017 44.171875 98.65380859 C41.70158186 94.17553491 38.58359929 90.1634224 35.53125 86.0703125 C34.41961522 84.53939876 33.31002829 83.00699451 32.203125 81.47265625 C31.3959696 80.3592762 30.58873451 79.24595388 29.78125 78.1328125 C28.08115693 79.55123334 26.39875726 80.98389571 24.73486328 82.44482422 C22.78125 84.1328125 22.78125 84.1328125 21.01123047 85.44970703 C18.2763268 87.68118308 16.96926326 89.25291043 16.21972656 92.76074219 C15.96782857 95.85736775 15.89859829 98.90121846 15.90625 102.0078125 C15.885625 103.07773438 15.865 104.14765625 15.84375 105.25 C15.7968345 107.8772679 15.78550881 110.5051292 15.78125 113.1328125 C8.85125 113.1328125 1.92125 113.1328125 -5.21875 113.1328125 C-5.2412979 98.54709723 -5.25966327 83.96139343 -5.27056217 69.37566471 C-5.27572491 62.60370829 -5.28276718 55.83176345 -5.29418945 49.05981445 C-5.30519714 42.53056824 -5.31102625 36.00132956 -5.31362724 29.47207451 C-5.31548199 26.97487638 -5.31910354 24.47767895 -5.32448006 21.98048592 C-5.33168684 18.49617181 -5.3327411 15.01190819 -5.33227539 11.52758789 C-5.33587067 10.48390045 -5.33946594 9.44021301 -5.34317017 8.36489868 C-5.3417955 7.42113876 -5.34042084 6.47737885 -5.33900452 5.50502014 C-5.33992631 4.68001542 -5.3408481 3.8550107 -5.34179783 3.00500584 C-5.1052972 -0.59339093 -3.11623223 0.00448102 0 0 Z " fill="#454545" transform="translate(549.21875,18.8671875)"/>
<path d="M0 0 C8.14328929 7.77019037 13.43923678 18.13966007 14.19921875 29.40234375 C14.4747577 44.13642661 11.4334503 55.8701498 1.08203125 66.8671875 C-8.4841285 75.85357999 -19.68522427 79.44464183 -32.60546875 79.17578125 C-44.37952934 78.13098406 -54.06467311 73.24600087 -62.13671875 64.6328125 C-71.48240938 53.14416096 -74.22216513 41.58593266 -73.0390625 26.87109375 C-70.38913583 13.21493756 -63.40281755 3.43479556 -52.28125 -4.70703125 C-35.68021158 -15.23451903 -14.74932694 -12.37985023 0 0 Z M-48.0390625 18.87109375 C-51.88503969 24.29042524 -53.41033995 30.25649278 -53.0390625 36.87109375 C-51.41294847 45.57201735 -47.26764779 50.91253788 -40.0390625 55.87109375 C-34.59710607 58.59207197 -28.56036606 58.80303004 -22.70703125 57.25390625 C-15.94459738 54.65031161 -11.35225549 50.19289559 -7.94140625 43.8203125 C-5.13892779 37.10739899 -5.45048053 30.91291798 -7.9453125 24.14453125 C-10.86141421 18.08320556 -14.86493741 14.04936719 -21.0390625 11.37109375 C-31.48983833 7.8190929 -40.76278143 10.72682992 -48.0390625 18.87109375 Z " fill="#444444" transform="translate(390.0390625,55.12890625)"/>
<path d="M0 0 C6.93 0 13.86 0 21 0 C21.0906926 11.64039507 21.16394106 23.28055202 21.20724869 34.92122173 C21.22804356 40.32757985 21.25621196 45.73368183 21.30175781 51.13989258 C21.34550601 56.36596475 21.36919788 61.59179193 21.37950897 66.81803322 C21.38684865 68.80295475 21.40118005 70.78786424 21.42292023 72.77268028 C21.59068927 88.737478 20.57890711 102.60004371 9.22265625 114.9296875 C2.09194167 121.7250106 -6.89522982 125.79650766 -16.75 126.125 C-20 126 -20 126 -21 125 C-21.08651611 123.58429877 -21.10704904 122.164405 -21.09765625 120.74609375 C-21.09443359 119.89208984 -21.09121094 119.03808594 -21.08789062 118.15820312 C-21.07951172 117.26037109 -21.07113281 116.36253906 -21.0625 115.4375 C-21.05798828 114.53580078 -21.05347656 113.63410156 -21.04882812 112.70507812 C-21.03700225 110.46998686 -21.0205222 108.23502563 -21 106 C-20.19175781 105.70867187 -19.38351562 105.41734375 -18.55078125 105.1171875 C-10.81987807 102.15165407 -6.51638099 100.03276198 -2.75 92.5 C-1.07498764 86.91662547 -0.83832138 81.40048765 -0.79467773 75.60791016 C-0.78477814 74.78773407 -0.77487854 73.96755798 -0.76467896 73.12252808 C-0.7332458 70.4280683 -0.70837889 67.73359093 -0.68359375 65.0390625 C-0.6630085 63.16433266 -0.64201162 61.2896073 -0.62062073 59.41488647 C-0.56556231 54.49289589 -0.51608178 49.57086455 -0.46777344 44.64880371 C-0.41743955 39.62130122 -0.36181567 34.59385753 -0.30664062 29.56640625 C-0.19925769 19.71098599 -0.09825817 9.85551546 0 0 Z " fill="#444444" transform="translate(415,46)"/>
<path d="M0 0 C7.43704267 5.00052583 11.53363839 12.11490534 13.30078125 20.81640625 C14.38832744 29.66404767 12.83168898 36.5439699 7.56640625 43.77734375 C2.01955037 50.18322598 -4.79840116 54.25483215 -13.2421875 55.1328125 C-22.73924405 55.47795758 -30.01442537 53.60811352 -37.51171875 47.69140625 C-43.52901735 41.97862681 -46.90754175 34.74760144 -47.32421875 26.453125 C-46.8798413 17.07953813 -44.09649017 9.3142218 -37.19921875 2.81640625 C-25.81200907 -5.39204171 -12.42212466 -6.68544187 0 0 Z " fill="#00AA12" transform="translate(112.19921875,68.18359375)"/>
</svg>
