<?xml version="1.0" encoding="UTF-8"?>
<svg version="1.1" xmlns="http://www.w3.org/2000/svg" width="1200" height="529">
<path d="M0 0 C1.98 0 3.96 0 6 0 C7.125 2.8125 7.125 2.8125 8 6 C7.34 6.99 6.68 7.98 6 9 C6.495 9.495 6.495 9.495 7 10 C7.07179964 11.51928038 7.08392007 13.04167482 7.0625 14.5625 C7.05347656 15.38878906 7.04445313 16.21507812 7.03515625 17.06640625 C7.02355469 17.70449219 7.01195312 18.34257812 7 19 C6.34 19 5.68 19 5 19 C5.33 28.9 5.66 38.8 6 49 C7.98 49 9.96 49 12 49 C12 48.34 12 47.68 12 47 C15.22791555 44.8480563 16.28400809 44.79913557 20 45 C20 44.34 20 43.68 20 43 C21.33804687 42.60167969 21.33804687 42.60167969 22.703125 42.1953125 C23.87359375 41.84210938 25.0440625 41.48890625 26.25 41.125 C27.41015625 40.77695313 28.5703125 40.42890625 29.765625 40.0703125 C32.363295 39.21069706 34.66537689 38.41189112 37 37 C37.33 36.34 37.66 35.68 38 35 C40.765625 34.40234375 40.765625 34.40234375 44.25 33.9375 C48.19851216 33.39703623 52.10075198 32.82822373 56 32 C56 31.34 56 30.68 56 30 C57.7015625 29.7834375 57.7015625 29.7834375 59.4375 29.5625 C62.80777201 29.38828522 62.80777201 29.38828522 64 28 C65.51928038 27.92820036 67.04167482 27.91607993 68.5625 27.9375 C69.38878906 27.94652344 70.21507812 27.95554688 71.06640625 27.96484375 C72.02353516 27.98224609 72.02353516 27.98224609 73 28 C73 27.34 73 26.68 73 26 C82.9 25.505 82.9 25.505 93 25 C93 31 93 31 91.6875 32.75 C89.15385525 34.62677389 87.0074234 35.99752553 84 37 C83.28460355 38.30783414 82.62345927 39.64592439 82 41 C81.04119966 42.28187437 80.04006043 43.5331293 79 44.75 C78.484375 45.36359375 77.96875 45.9771875 77.4375 46.609375 C76 48 76 48 74 48 C73.896875 48.78375 73.79375 49.5675 73.6875 50.375 C73 53 73 53 70 55 C67.93314567 56.73615764 67.07175288 57.79026082 66.1875 60.375 C64.53008731 64.03875436 62.14956314 65.52055668 59 68 C58.67 68.66 58.34 69.32 58 70 C57.34 70 56.68 70 56 70 C56 70.99 56 71.98 56 73 C55.34 73 54.68 73 54 73 C53.67 73.99 53.34 74.98 53 76 C51.0625 79.1875 51.0625 79.1875 49 82 C48.34 82 47.68 82 47 82 C46.67 82.99 46.34 83.98 46 85 C45.34 85 44.68 85 44 85 C43.690625 85.94875 43.38125 86.8975 43.0625 87.875 C42 91 42 91 41 93 C40.34 93 39.68 93 39 93 C39 93.99 39 94.98 39 96 C38.34 96 37.68 96 37 96 C37 96.99 37 97.98 37 99 C36.34 99 35.68 99 35 99 C34.67 101.31 34.34 103.62 34 106 C33.01 106 32.02 106 31 106 C28.99424969 111.74981756 27.86398798 116.71100211 27.9375 122.8125 C27.94652344 123.78832031 27.95554687 124.76414062 27.96484375 125.76953125 C27.97644531 126.50558594 27.98804688 127.24164063 28 128 C28.66 128.33 29.32 128.66 30 129 C32.40773198 131.10676548 33.83134393 132.50607865 34.875 135.5625 C36.4417659 138.95715944 38.6984632 139.45459979 42 141 C42.33 141.99 42.66 142.98 43 144 C43.99 144.309375 44.98 144.61875 46 144.9375 C46.99 145.288125 47.98 145.63875 49 146 C49.875 148.125 49.875 148.125 50 150 C51.32 150 52.64 150 54 150 C54 150.66 54 151.32 54 152 C54.598125 152.144375 55.19625 152.28875 55.8125 152.4375 C57.56150404 152.8872439 59.28677023 153.42892341 61 154 C61 154.66 61 155.32 61 156 C62.32 155.67 63.64 155.34 65 155 C67 158 67 158 66.625 160.6875 C66.41875 161.450625 66.2125 162.21375 66 163 C65.34 163 64.68 163 64 163 C63.67 163.66 63.34 164.32 63 165 C59.87709365 164.51421457 57.00419641 164.0013988 54 163 C54 162.34 54 161.68 54 161 C50.04 160.01 50.04 160.01 46 159 C46 158.34 46 157.68 46 157 C44.35 157 42.7 157 41 157 C41 156.34 41 155.68 41 155 C40.01 155 39.02 155 38 155 C38 154.34 38 153.68 38 153 C35.69 153 33.38 153 31 153 C31 152.34 31 151.68 31 151 C29.989375 151.04125 28.97875 151.0825 27.9375 151.125 C22.91819804 150.96565708 18.72654979 149.5755166 14 148 C13.67 147.34 13.34 146.68 13 146 C12.21625 146.04125 11.4325 146.0825 10.625 146.125 C8 146 8 146 6 144 C3.1092504 143.5326333 0.28339431 143.16300658 -2.625 142.875 C-3.42679688 142.78863281 -4.22859375 142.70226562 -5.0546875 142.61328125 C-7.03563635 142.40103673 -9.01772718 142.19950069 -11 142 C-11 141.34 -11 140.68 -11 140 C-14.3 140 -17.6 140 -21 140 C-21 139.34 -21 138.68 -21 138 C-21.7425 138.20625 -22.485 138.4125 -23.25 138.625 C-26.46903107 139.06395878 -27.19485834 138.44412848 -30 137 C-31.48946979 136.62238794 -32.99091073 136.28941438 -34.5 136 C-39.44843432 135.0509852 -42.46361345 133.53638655 -46 130 C-46.804375 129.566875 -47.60875 129.13375 -48.4375 128.6875 C-51.61993692 126.59174886 -52.97512596 124.20060735 -55 121 C-55.7425 120.2575 -56.485 119.515 -57.25 118.75 C-57.8275 118.1725 -58.405 117.595 -59 117 C-59 116.34 -59 115.68 -59 115 C-59.66 115 -60.32 115 -61 115 C-61 114.01 -61 113.02 -61 112 C-61.86625 111.814375 -61.86625 111.814375 -62.75 111.625 C-65.02335767 110.99351176 -66.9253529 110.11141809 -69 109 C-69 108.01 -69 107.02 -69 106 C-70.485 105.814375 -70.485 105.814375 -72 105.625 C-76.08880024 105.04805273 -80.00861887 104.05036346 -84 103 C-84 102.34 -84 101.68 -84 101 C-86.97 101.495 -86.97 101.495 -90 102 C-90 101.01 -90 100.02 -90 99 C-91.9490625 99.0309375 -91.9490625 99.0309375 -93.9375 99.0625 C-95.29165633 99.08399454 -96.64756083 99.07148199 -98 99 C-98.495 98.505 -98.495 98.505 -99 98 C-100.32781878 97.79395915 -101.66295895 97.6337041 -103 97.5 C-106.88888889 97.11111111 -106.88888889 97.11111111 -108 96 C-109.51165654 95.60851239 -111.03469632 95.26027543 -112.5625 94.9375 C-113.38878906 94.76089844 -114.21507812 94.58429688 -115.06640625 94.40234375 C-115.70449219 94.26957031 -116.34257813 94.13679688 -117 94 C-117 93.34 -117 92.68 -117 92 C-117.66 92 -118.32 92 -119 92 C-118.67 91.01 -118.34 90.02 -118 89 C-113.1361065 87.59619334 -108.68434365 88.27191355 -103.75 88.875 C-102.50863281 89.01228516 -102.50863281 89.01228516 -101.2421875 89.15234375 C-95.13705937 89.86294063 -95.13705937 89.86294063 -94 91 C-92.50503158 91.20699563 -91.0033408 91.36679259 -89.5 91.5 C-85.11111111 91.88888889 -85.11111111 91.88888889 -84 93 C-82.5444063 93.09858603 -81.08392081 93.12972143 -79.625 93.125 C-78.83351563 93.12757813 -78.04203125 93.13015625 -77.2265625 93.1328125 C-74.82656504 93.08617666 -74.82656504 93.08617666 -72 92 C-72 91.34 -72 90.68 -72 90 C-66.06 90 -60.12 90 -54 90 C-54 90.66 -54 91.32 -54 92 C-52.68 92 -51.36 92 -50 92 C-50 92.66 -50 93.32 -50 94 C-48.68 94 -47.36 94 -46 94 C-46 94.66 -46 95.32 -46 96 C-44.02 95.67 -42.04 95.34 -40 95 C-40 94.01 -40 93.02 -40 92 C-39.01 92 -38.02 92 -37 92 C-36.94588876 89.58303128 -36.90627722 87.16728213 -36.875 84.75 C-36.84986328 83.72712891 -36.84986328 83.72712891 -36.82421875 82.68359375 C-36.78721508 78.87221608 -37.04531768 76.27521198 -39 73 C-39.165 71.948125 -39.33 70.89625 -39.5 69.8125 C-39.665 68.884375 -39.83 67.95625 -40 67 C-40.66 66.67 -41.32 66.34 -42 66 C-42 62.37 -42 58.74 -42 55 C-42.66 55 -43.32 55 -44 55 C-45.32765661 45.24461012 -44.77758812 38.09256674 -41 29 C-40.505 27.515 -40.505 27.515 -40 26 C-39.34 26 -38.68 26 -38 26 C-37.01 24.515 -37.01 24.515 -36 23 C-32.44444444 19.22222222 -32.44444444 19.22222222 -30 18 C-29.505 16.515 -29.505 16.515 -29 15 C-28.01 15 -27.02 15 -26 15 C-26 14.34 -26 13.68 -26 13 C-25.01 13 -24.02 13 -23 13 C-23 12.34 -23 11.68 -23 11 C-20.525 10.505 -20.525 10.505 -18 10 C-18 9.34 -18 8.68 -18 8 C-14.91190305 6.23537317 -13.76687864 6 -10 6 C-10 5.34 -10 4.68 -10 4 C-6.49223216 2.39644899 -3.85645121 1.77963136 0 2 C0 1.34 0 0.68 0 0 Z " fill="#19A0E0" transform="translate(1056,132)"/>
<path d="M0 0 C0.84626953 -0.00386719 1.69253906 -0.00773438 2.56445312 -0.01171875 C7.77764744 -0.0036799 12.77833333 0.37349133 17.9375 1.125 C17.9375 1.785 17.9375 2.445 17.9375 3.125 C19.5875 3.125 21.2375 3.125 22.9375 3.125 C22.9375 3.785 22.9375 4.445 22.9375 5.125 C24.2575 5.125 25.5775 5.125 26.9375 5.125 C26.9375 5.785 26.9375 6.445 26.9375 7.125 C27.9275 7.125 28.9175 7.125 29.9375 7.125 C29.9375 7.785 29.9375 8.445 29.9375 9.125 C30.52402344 9.39570313 31.11054687 9.66640625 31.71484375 9.9453125 C36.40697694 12.43568899 41.3010008 16.47235435 43.9375 21.125 C43.9375 22.445 43.9375 23.765 43.9375 25.125 C44.5975 25.125 45.2575 25.125 45.9375 25.125 C48.0894437 28.35291555 48.13836443 29.40900809 47.9375 33.125 C48.5975 33.125 49.2575 33.125 49.9375 33.125 C50.06125 34.15625 50.185 35.1875 50.3125 36.25 C50.79251185 40.00320663 50.79251185 40.00320663 51.96484375 42.9375 C53.6810759 48.56177884 53.14320786 54.29882242 52.9375 60.125 C52.89302734 61.42050781 52.89302734 61.42050781 52.84765625 62.7421875 C52.6875 64.875 52.6875 64.875 51.9375 68.125 C48.44637023 70.77680201 44.4187564 70.39361912 40.23144531 70.35205078 C39.46032913 70.35234283 38.68921295 70.35263489 37.89472961 70.35293579 C35.3515794 70.35154493 32.8087239 70.33599527 30.265625 70.3203125 C28.50014404 70.3165815 26.73466101 70.31373494 24.96917725 70.31173706 C20.32654078 70.30410743 15.68402981 70.28446467 11.04144287 70.2623291 C6.30238543 70.24185626 1.56330768 70.23273226 -3.17578125 70.22265625 C-12.47140925 70.20121817 -21.76694418 70.16709027 -31.0625 70.125 C-30.90402588 70.90383545 -30.74555176 71.6826709 -30.58227539 72.48510742 C-29.88666859 76.01803195 -29.48668051 79.54976428 -29.0625 83.125 C-28.4025 83.125 -27.7425 83.125 -27.0625 83.125 C-27.0625 84.445 -27.0625 85.765 -27.0625 87.125 C-26.4025 87.125 -25.7425 87.125 -25.0625 87.125 C-25.0625 87.785 -25.0625 88.445 -25.0625 89.125 C-24.4025 89.125 -23.7425 89.125 -23.0625 89.125 C-22.7325 90.445 -22.4025 91.765 -22.0625 93.125 C-21.0725 93.125 -20.0825 93.125 -19.0625 93.125 C-19.0625 93.785 -19.0625 94.445 -19.0625 95.125 C-18.19625 95.41375 -17.33 95.7025 -16.4375 96 C-13.3125 97.04166667 -10.1875 98.08333333 -7.0625 99.125 C-7.0625 99.785 -7.0625 100.445 -7.0625 101.125 C8.62298355 101.37530027 22.77068461 101.23065035 35.12109375 90.26171875 C37.48755515 88.78077194 39.19948794 88.923054 41.9375 89.125 C42.61158308 90.39191507 43.27650497 91.66370749 43.9375 92.9375 C44.30875 93.64519531 44.68 94.35289062 45.0625 95.08203125 C45.9375 97.125 45.9375 97.125 45.9375 100.125 C46.5975 100.125 47.2575 100.125 47.9375 100.125 C50.61677341 104.14391012 50.09351248 106.36661923 49.9375 111.125 C47.9575 111.785 45.9775 112.445 43.9375 113.125 C43.9375 113.785 43.9375 114.445 43.9375 115.125 C42.9475 115.125 41.9575 115.125 40.9375 115.125 C40.9375 115.785 40.9375 116.445 40.9375 117.125 C39.50320999 117.79854499 38.06492943 118.46359701 36.625 119.125 C35.82449219 119.49625 35.02398438 119.8675 34.19921875 120.25 C31.9375 121.125 31.9375 121.125 28.9375 121.125 C28.9375 121.785 28.9375 122.445 28.9375 123.125 C24.08330216 125.55209892 19.25858452 125.73970299 13.9375 126.125 C12.62652344 126.24101562 11.31554687 126.35703125 9.96484375 126.4765625 C0.92317218 127.20969883 -7.13185482 127.00431838 -16.0625 125.125 C-16.0625 124.465 -16.0625 123.805 -16.0625 123.125 C-18.5375 123.62 -18.5375 123.62 -21.0625 124.125 C-21.3925 123.465 -21.7225 122.805 -22.0625 122.125 C-25.35400026 120.60115729 -28.62181072 119.27189643 -32.0625 118.125 C-32.0625 117.465 -32.0625 116.805 -32.0625 116.125 C-32.64 115.83625 -33.2175 115.5475 -33.8125 115.25 C-34.92625 114.693125 -34.92625 114.693125 -36.0625 114.125 C-36.7225 113.856875 -37.3825 113.58875 -38.0625 113.3125 C-40.74808005 111.71793685 -42.18959316 109.60207033 -44.0625 107.125 C-44.64 106.568125 -45.2175 106.01125 -45.8125 105.4375 C-47.0625 104.125 -47.0625 104.125 -47.0625 102.125 C-47.7225 102.125 -48.3825 102.125 -49.0625 102.125 C-49.90634675 100.71457044 -50.73719496 99.29635868 -51.5625 97.875 C-52.0265625 97.08609375 -52.490625 96.2971875 -52.96875 95.484375 C-54.0625 93.125 -54.0625 93.125 -54.0625 89.125 C-54.7225 89.125 -55.3825 89.125 -56.0625 89.125 C-57.86480168 85.29510894 -58.25872241 82.34378192 -58.0625 78.125 C-58.7225 78.125 -59.3825 78.125 -60.0625 78.125 C-61.63739436 63.07913421 -60.96457526 49.60246228 -56.0625 35.125 C-55.4025 35.125 -54.7425 35.125 -54.0625 35.125 C-53.96066406 34.58359375 -53.85882813 34.0421875 -53.75390625 33.484375 C-52.88492393 30.51903419 -51.50777709 28.06975054 -50 25.375 C-49.45214844 24.39015625 -48.90429688 23.4053125 -48.33984375 22.390625 C-47.91832031 21.64296875 -47.49679687 20.8953125 -47.0625 20.125 C-46.4025 20.125 -45.7425 20.125 -45.0625 20.125 C-45.0625 19.465 -45.0625 18.805 -45.0625 18.125 C-42.75 15.5 -42.75 15.5 -40.0625 13.125 C-39.0725 13.125 -38.0825 13.125 -37.0625 13.125 C-37.0625 12.465 -37.0625 11.805 -37.0625 11.125 C-35.234375 9.6171875 -35.234375 9.6171875 -32.8125 8 C-32.02359375 7.46117187 -31.2346875 6.92234375 -30.421875 6.3671875 C-28.0625 5.125 -28.0625 5.125 -24.0625 5.125 C-24.0625 4.465 -24.0625 3.805 -24.0625 3.125 C-22.4125 3.125 -20.7625 3.125 -19.0625 3.125 C-19.0625 2.465 -19.0625 1.805 -19.0625 1.125 C-12.66845309 0.31203339 -6.44218339 -0.02957391 0 0 Z M-14.0625 25.125 C-14.0625 25.785 -14.0625 26.445 -14.0625 27.125 C-15.2071875 27.3415625 -15.2071875 27.3415625 -16.375 27.5625 C-20.5725195 28.38541572 -20.5725195 28.38541572 -23.75 31.0625 C-25.2414585 32.99877035 -25.2414585 32.99877035 -25.0625 35.125 C-25.7225 35.125 -26.3825 35.125 -27.0625 35.125 C-27.0625 36.115 -27.0625 37.105 -27.0625 38.125 C-27.7225 38.125 -28.3825 38.125 -29.0625 38.125 C-29.3925 41.095 -29.7225 44.065 -30.0625 47.125 C-11.9125 47.125 6.2375 47.125 24.9375 47.125 C23.1709024 40.92553029 23.1709024 40.92553029 21.0625 34.875 C20.75570312 34.04484375 20.44890625 33.2146875 20.1328125 32.359375 C18.75355958 29.78116367 17.42549731 28.62755524 14.9375 27.125 C14.2775 27.125 13.6175 27.125 12.9375 27.125 C12.9375 26.465 12.9375 25.805 12.9375 25.125 C8.26414352 22.7458367 3.9908153 22.82545215 -1.125 22.875 C-1.92744141 22.86726563 -2.72988281 22.85953125 -3.55664062 22.8515625 C-9.0943534 22.83800669 -9.0943534 22.83800669 -14.0625 25.125 Z " fill="#3F4243" transform="translate(520.0625,244.875)"/>
<path d="M0 0 C4.14581887 -0.02886751 8.29161216 -0.04675327 12.4375 -0.0625 C14.21350586 -0.07506836 14.21350586 -0.07506836 16.02539062 -0.08789062 C17.15009766 -0.09111328 18.27480469 -0.09433594 19.43359375 -0.09765625 C20.47572021 -0.10289307 21.51784668 -0.10812988 22.59155273 -0.11352539 C25 0 25 0 26 1 C26.09516211 3.7388842 26.12554594 6.45247941 26.11352539 9.19165039 C26.11367142 10.05011063 26.11381744 10.90857086 26.1139679 11.79304504 C26.11326847 14.64460738 26.1054747 17.49610525 26.09765625 20.34765625 C26.09579218 22.31920842 26.09436822 24.29076105 26.09336853 26.26231384 C26.08954251 31.46226267 26.07971152 36.66218375 26.06866455 41.86212158 C26.05845222 47.16393661 26.05387129 52.4657561 26.04882812 57.76757812 C26.03808933 68.17839763 26.02101191 78.58919651 26 89 C26.928125 88.835 27.85625 88.67 28.8125 88.5 C32 88 32 88 35 88 C35.33 87.34 35.66 86.68 36 86 C36.94875 85.566875 37.8975 85.13375 38.875 84.6875 C42.32944768 82.82209825 43.17818507 81.37035762 45 78 C45.66 78 46.32 78 47 78 C47 77.34 47 76.68 47 76 C47.66 76 48.32 76 49 76 C49.268125 75.43796875 49.53625 74.8759375 49.8125 74.296875 C51.0803979 71.84449354 52.48972342 69.56072317 54 67.25 C54.515625 66.45078125 55.03125 65.6515625 55.5625 64.828125 C56.036875 64.22484375 56.51125 63.6215625 57 63 C57.66 63 58.32 63 59 63 C59.33 61.35 59.66 59.7 60 58 C60.66 58 61.32 58 62 58 C62 57.01 62 56.02 62 55 C62.99 54.67 63.98 54.34 65 54 C65.99 51.69 66.98 49.38 68 47 C78.23 47 88.46 47 99 47 C97.95614566 52.21927172 96.99332131 53.61934503 93.625 57.5 C90.71308485 60.87668337 88.20815815 64.12603834 86 68 C85.34 68.99 84.68 69.98 84 71 C83.34 71 82.68 71 82 71 C82 71.99 82 72.98 82 74 C81.34 74 80.68 74 80 74 C79.73316406 74.57492187 79.46632813 75.14984375 79.19140625 75.7421875 C77.95935505 78.07702551 76.55161725 80.03894184 74.9375 82.125 C72.76773805 84.93627263 72.76773805 84.93627263 71 88 C70.34 88 69.68 88 69 88 C68.34 89.65 67.68 91.3 67 93 C66.34 93 65.68 93 65 93 C64.67 94.65 64.34 96.3 64 98 C63.34 98 62.68 98 62 98 C62.495 98.86625 62.495 98.86625 63 99.75 C64 102 64 102 64 106 C64.66 106 65.32 106 66 106 C66.33 107.65 66.66 109.3 67 111 C67.66 111 68.32 111 69 111 C71.74375671 113.95481492 72 114.77471908 72 119 C73.485 119.495 73.485 119.495 75 120 C75.33 120.99 75.66 121.98 76 123 C76.45375 123.45375 76.9075 123.9075 77.375 124.375 C79.39514917 126.39514917 80.67434418 128.4749413 82 131 C82 131.99 82 132.98 82 134 C82.99 134.33 83.98 134.66 85 135 C86.75390625 137.6875 86.75390625 137.6875 88.5625 141 C90.56923901 145.2118786 90.56923901 145.2118786 94 148 C95.07897329 149.75726685 96.090995 151.55611348 97.0625 153.375 C97.58972656 154.35210937 98.11695313 155.32921875 98.66015625 156.3359375 C100 159 100 159 101 162 C101.66 162 102.32 162 103 162 C103 164.31 103 166.62 103 169 C102.46173584 168.8364502 101.92347168 168.67290039 101.36889648 168.50439453 C98.55259523 167.90473686 95.97740078 167.90775085 93.09765625 167.9296875 C91.96005859 167.919375 90.82246094 167.9090625 89.65039062 167.8984375 C87.26240796 167.88283827 84.87415662 167.89057632 82.48632812 167.921875 C74.00613339 167.78749727 74.00613339 167.78749727 71.06982422 165.48925781 C68.84871188 162.5147354 68 160.75552662 68 157 C67.01 157 66.02 157 65 157 C63.5 152.5 63.5 152.5 62 148 C61.34 148 60.68 148 60 148 C59.505 145.525 59.505 145.525 59 143 C58.34 143 57.68 143 57 143 C55.96210419 141.35666496 54.96432076 139.68756133 54 138 C53.01 137.01 53.01 137.01 52 136 C51.566875 135.113125 51.13375 134.22625 50.6875 133.3125 C49.04863151 130.09546185 47.19690201 127.44735213 44.98828125 124.61328125 C44 123 44 123 44 120 C43.34 120 42.68 120 42 120 C42 119.01 42 118.02 42 117 C41.21625 116.690625 40.4325 116.38125 39.625 116.0625 C37 115 37 115 35 114 C32.03 113.67 29.06 113.34 26 113 C26 130.82 26 148.64 26 167 C22.42669869 167.89332533 20.17816662 168.05890833 16.578125 167.87890625 C15.04091797 167.80639648 15.04091797 167.80639648 13.47265625 167.73242188 C12.40917969 167.67634766 11.34570312 167.62027344 10.25 167.5625 C9.17105469 167.51029297 8.09210937 167.45808594 6.98046875 167.40429688 C4.32000578 167.27480531 1.65993548 167.13984639 -1 167 C-2.08916216 163.46794762 -2.12840684 160.19386557 -2.13371277 156.50964355 C-2.13597833 155.85976329 -2.13824388 155.20988303 -2.14057809 154.54030943 C-2.14690346 152.36474546 -2.14608968 150.18924402 -2.14526367 148.01367188 C-2.14825602 146.45308858 -2.15165872 144.89250602 -2.15544128 143.33192444 C-2.16427635 139.09442061 -2.16661915 134.85693697 -2.16725707 130.61942482 C-2.16820657 127.08297687 -2.17188522 123.54653363 -2.17542917 120.01008749 C-2.18357133 111.66866918 -2.18601356 103.32726167 -2.18530273 94.98583984 C-2.18470152 86.37663755 -2.1952625 77.76749782 -2.2110464 69.15831137 C-2.22411209 61.76884208 -2.22948706 54.37939327 -2.22884732 46.98991251 C-2.22859211 42.57552293 -2.23145618 38.161189 -2.24202538 33.74681091 C-2.2516904 29.59686776 -2.25179655 25.44703366 -2.24450874 21.29708672 C-2.24346101 19.77328266 -2.24583693 18.24947187 -2.2518692 16.7256794 C-2.25956545 14.64710934 -2.25496037 12.56891811 -2.24723816 10.49035645 C-2.24778293 9.32671822 -2.24832769 8.16307999 -2.24888897 6.96417999 C-2.0074207 4.08837792 -1.50065808 2.43012959 0 0 Z " fill="#404243" transform="translate(786,201)"/>
<path d="M0 0 C1.41925781 -0.00580078 1.41925781 -0.00580078 2.8671875 -0.01171875 C10.58196308 -0.00103347 17.69608145 0.38603054 25 3.125 C25 3.785 25 4.445 25 5.125 C25.5775 5.269375 26.155 5.41375 26.75 5.5625 C28.83333333 6.08333333 30.91666667 6.60416667 33 7.125 C33 7.785 33 8.445 33 9.125 C33.99 9.125 34.98 9.125 36 9.125 C36 9.785 36 10.445 36 11.125 C36.99 11.125 37.98 11.125 39 11.125 C39 11.785 39 12.445 39 13.125 C39.57363281 13.38539063 40.14726563 13.64578125 40.73828125 13.9140625 C43.1744207 15.21838587 45.09306786 16.70028158 47.1875 18.5 C47.88230469 19.08523438 48.57710937 19.67046875 49.29296875 20.2734375 C51.12401235 22.25951225 51.61074192 23.48734076 52 26.125 C52.66 26.125 53.32 26.125 54 26.125 C54.495 28.105 54.495 28.105 55 30.125 C55.66 30.125 56.32 30.125 57 30.125 C57 31.115 57 32.105 57 33.125 C57.66 33.125 58.32 33.125 59 33.125 C61.03993514 38.05484325 62.40652968 41.70460425 62 47.125 C62.99 47.455 63.98 47.785 65 48.125 C64.98259766 49.35476563 64.98259766 49.35476563 64.96484375 50.609375 C64.95582031 51.68703125 64.94679688 52.7646875 64.9375 53.875 C64.92009766 55.47601563 64.92009766 55.47601563 64.90234375 57.109375 C64.8870595 60.0168999 64.8870595 60.0168999 65.56640625 62.328125 C66 64.125 66 64.125 65 67.125 C64.82512294 68.89320137 64.68264566 70.66473857 64.5625 72.4375 C63.96802209 79.31002494 61.777685 84.80003499 58.93359375 91.01953125 C57.92757683 93.20433957 57.92757683 93.20433957 57.0625 95.875 C55.61821496 98.93348596 53.43604276 100.81075938 51 103.125 C50.34 104.115 49.68 105.105 49 106.125 C48.34 106.125 47.68 106.125 47 106.125 C47 106.785 47 107.445 47 108.125 C46.34 108.125 45.68 108.125 45 108.125 C45 108.785 45 109.445 45 110.125 C43.02709413 112.47369747 41.99693138 113.12602287 39 114.125 C38.67 114.785 38.34 115.445 38 116.125 C35.85546875 117.4140625 35.85546875 117.4140625 33.1875 118.75 C32.31480469 119.19601562 31.44210937 119.64203125 30.54296875 120.1015625 C28 121.125 28 121.125 24 121.125 C24 121.785 24 122.445 24 123.125 C22.35 123.125 20.7 123.125 19 123.125 C19 123.785 19 124.445 19 125.125 C-7.67487685 128.90004105 -7.67487685 128.90004105 -19 125.125 C-19 124.465 -19 123.805 -19 123.125 C-19.61875 123.310625 -20.2375 123.49625 -20.875 123.6875 C-23 124.125 -23 124.125 -25 123.125 C-25 122.465 -25 121.805 -25 121.125 C-26.65 121.125 -28.3 121.125 -30 121.125 C-30 120.465 -30 119.805 -30 119.125 C-30.61875 118.980625 -31.2375 118.83625 -31.875 118.6875 C-34 118.125 -34 118.125 -36 117.125 C-36 116.465 -36 115.805 -36 115.125 C-36.99 115.125 -37.98 115.125 -39 115.125 C-39 114.465 -39 113.805 -39 113.125 C-41.65228812 112.04974806 -44.28368454 111.03043849 -47 110.125 C-48.1875 107.0625 -48.1875 107.0625 -49 104.125 C-49.66 104.125 -50.32 104.125 -51 104.125 C-51 103.465 -51 102.805 -51 102.125 C-51.66 102.125 -52.32 102.125 -53 102.125 C-53 101.135 -53 100.145 -53 99.125 C-53.99 99.125 -54.98 99.125 -56 99.125 C-56.495 96.155 -56.495 96.155 -57 93.125 C-57.66 93.125 -58.32 93.125 -59 93.125 C-59 91.805 -59 90.485 -59 89.125 C-59.66 89.125 -60.32 89.125 -61 89.125 C-61 87.475 -61 85.825 -61 84.125 C-61.66 84.125 -62.32 84.125 -63 84.125 C-63.2165625 82.4234375 -63.2165625 82.4234375 -63.4375 80.6875 C-63.61171478 77.31722799 -63.61171478 77.31722799 -65 76.125 C-65.25548149 71.92308092 -65.18523966 67.70875181 -65.1875 63.5 C-65.19974609 62.32308594 -65.21199219 61.14617187 -65.22460938 59.93359375 C-65.23471031 53.94710685 -65.09080612 48.76108606 -63 43.125 C-62.34 43.125 -61.68 43.125 -61 43.125 C-61.04125 42.403125 -61.0825 41.68125 -61.125 40.9375 C-60.93094723 36.57131268 -59.40118574 33.7267786 -57 30.125 C-56.67 29.135 -56.34 28.145 -56 27.125 C-55.01 27.125 -54.02 27.125 -53 27.125 C-52.690625 26.34125 -52.38125 25.5575 -52.0625 24.75 C-51 22.125 -51 22.125 -50 20.125 C-49.34 20.125 -48.68 20.125 -48 20.125 C-47.67 19.465 -47.34 18.805 -47 18.125 C-46.01 17.795 -45.02 17.465 -44 17.125 C-44 16.465 -44 15.805 -44 15.125 C-39.07667692 10.33123806 -32.0746553 5.125 -25 5.125 C-25 4.465 -25 3.805 -25 3.125 C-23.02 3.125 -21.04 3.125 -19 3.125 C-19 2.465 -19 1.805 -19 1.125 C-12.63146928 0.17873246 -6.43334834 -0.02629434 0 0 Z M-2 23.125 C-2.33 23.455 -2.66 23.785 -3 24.125 C-4.997391 24.3542088 -6.99478321 24.58340704 -8.9921875 24.8125 C-11.32151648 25.17504147 -13.04757835 25.79735328 -15 27.125 C-15.33 27.785 -15.66 28.445 -16 29.125 C-17.66321482 29.47515049 -19.33034549 29.80697057 -21 30.125 C-21.99 30.785 -22.98 31.445 -24 32.125 C-24 32.785 -24 33.445 -24 34.125 C-25.98 35.115 -25.98 35.115 -28 36.125 C-28 36.785 -28 37.445 -28 38.125 C-28.66 38.125 -29.32 38.125 -30 38.125 C-33.19560041 42.19073561 -33.19560041 42.19073561 -34 47.125 C-34.66 47.125 -35.32 47.125 -36 47.125 C-36.78682283 52.70200022 -37.18243726 58.12023122 -37.1875 63.75 C-37.20586914 64.83667969 -37.20586914 64.83667969 -37.22460938 65.9453125 C-37.23674179 70.41004179 -36.66981572 73.92021041 -35 78.125 C-34.75378906 78.81207031 -34.50757813 79.49914062 -34.25390625 80.20703125 C-33.58483504 81.8815993 -32.79372862 83.50579361 -32 85.125 C-31.01 85.455 -30.02 85.785 -29 86.125 C-28.3125 88.1875 -28.3125 88.1875 -28 90.125 C-27.34 90.125 -26.68 90.125 -26 90.125 C-26 90.785 -26 91.445 -26 92.125 C-25.34 92.125 -24.68 92.125 -24 92.125 C-24 92.785 -24 93.445 -24 94.125 C-22.3838238 95.42387477 -22.3838238 95.42387477 -20.3125 96.625 C-19.62800781 97.0478125 -18.94351563 97.470625 -18.23828125 97.90625 C-12.2866131 101.14694889 -7.44600995 101.49060868 -0.75 101.5 C0.60544922 101.53673828 0.60544922 101.53673828 1.98828125 101.57421875 C10.96783525 101.61297941 17.53679012 98.79284948 24.4375 93.0625 C25.26121094 92.39089844 26.08492187 91.71929687 26.93359375 91.02734375 C29.18243933 89.10749517 29.18243933 89.10749517 31 86.125 C31 85.135 31 84.145 31 83.125 C31.66 83.125 32.32 83.125 33 83.125 C33 81.805 33 80.485 33 79.125 C33.66 79.125 34.32 79.125 35 79.125 C35 77.475 35 75.825 35 74.125 C35.66 74.125 36.32 74.125 37 74.125 C37.05800828 70.52090081 37.09359869 66.91692149 37.125 63.3125 C37.15013672 61.77625977 37.15013672 61.77625977 37.17578125 60.20898438 C37.18222656 59.22607422 37.18867187 58.24316406 37.1953125 57.23046875 C37.20578613 56.32449951 37.21625977 55.41853027 37.22705078 54.48510742 C37.16165391 51.85563552 37.16165391 51.85563552 35 49.125 C34.32060826 47.12928677 33.65438441 45.12905227 33 43.125 C32.15922128 40.85642854 32.15922128 40.85642854 31 39.125 C30.01 38.795 29.02 38.465 28 38.125 C27.505 36.64 27.505 36.64 27 35.125 C26.34 35.125 25.68 35.125 25 35.125 C25 34.465 25 33.805 25 33.125 C24.195625 32.83625 23.39125 32.5475 22.5625 32.25 C20 31.125 20 31.125 19 29.125 C18.34 29.455 17.68 29.785 17 30.125 C17 29.465 17 28.805 17 28.125 C14.525 27.63 14.525 27.63 12 27.125 C12 26.465 12 25.805 12 25.125 C11.11248047 25.03412109 11.11248047 25.03412109 10.20703125 24.94140625 C6.76318281 24.57623472 3.39317337 24.20691112 0 23.5 C-0.66 23.37625 -1.32 23.2525 -2 23.125 Z " fill="#404243" transform="translate(703,244.875)"/>
<path d="M0 0 C0.88558594 -0.00386719 1.77117188 -0.00773438 2.68359375 -0.01171875 C8.36537555 -0.00337546 13.86394133 0.40330956 19.5 1.125 C19.5 1.785 19.5 2.445 19.5 3.125 C20.5209375 3.00125 20.5209375 3.00125 21.5625 2.875 C25.66875665 3.22446865 28.02321895 4.94349032 31.5 7.125 C31.5 7.785 31.5 8.445 31.5 9.125 C32.82 9.785 34.14 10.445 35.5 11.125 C35.5 11.785 35.5 12.445 35.5 13.125 C36.16 13.125 36.82 13.125 37.5 13.125 C37.5 13.785 37.5 14.445 37.5 15.125 C38.16 15.125 38.82 15.125 39.5 15.125 C40.49 17.6 40.49 17.6 41.5 20.125 C42.16 20.125 42.82 20.125 43.5 20.125 C46.38058659 29.66934358 46.38058659 29.66934358 47.625 34.0625 C48.206111 36.09638849 48.83109101 38.11827303 49.5 40.125 C49.59116335 42.78722191 49.62603073 45.42270913 49.61352539 48.0847168 C49.61367142 48.89470123 49.61381744 49.70468567 49.6139679 50.53921509 C49.613271 53.21757685 49.60548903 55.89586913 49.59765625 58.57421875 C49.59579128 60.43081118 49.59436775 62.2874041 49.59336853 64.14399719 C49.5895496 69.03155881 49.57972461 73.91909074 49.56866455 78.80664062 C49.55843704 83.79361571 49.55386803 88.78059558 49.54882812 93.76757812 C49.53810181 103.55339847 49.52103284 113.33919676 49.5 123.125 C46.56640745 123.90794462 44.20998065 124.19921304 41.171875 124.00390625 C40.37265625 123.95556641 39.5734375 123.90722656 38.75 123.85742188 C37.925 123.80134766 37.1 123.74527344 36.25 123.6875 C35.40953125 123.63529297 34.5690625 123.58308594 33.703125 123.52929688 C31.6350648 123.40004311 29.5674778 123.26325726 27.5 123.125 C27.5 123.785 27.5 124.445 27.5 125.125 C25.52 124.63 25.52 124.63 23.5 124.125 C23.005 119.67 23.005 119.67 22.5 115.125 C21.96890625 115.558125 21.4378125 115.99125 20.890625 116.4375 C20.18421875 116.994375 19.4778125 117.55125 18.75 118.125 C18.05390625 118.681875 17.3578125 119.23875 16.640625 119.8125 C14.5 121.125 14.5 121.125 10.5 121.125 C10.5 121.785 10.5 122.445 10.5 123.125 C9.18 123.125 7.86 123.125 6.5 123.125 C6.5 123.785 6.5 124.445 6.5 125.125 C-8.59500443 126.99596598 -21.56402169 128.37452407 -35.5 121.125 C-35.5 120.465 -35.5 119.805 -35.5 119.125 C-36.24636719 119.03992188 -36.99273438 118.95484375 -37.76171875 118.8671875 C-41.05575889 117.97436635 -42.13803903 116.8366137 -44.3125 114.25 C-45.21935547 113.20199219 -45.21935547 113.20199219 -46.14453125 112.1328125 C-47.5 110.125 -47.5 110.125 -47.5 107.125 C-48.16 107.125 -48.82 107.125 -49.5 107.125 C-52.52970109 100.44534406 -52.87373178 94.90236502 -52.6875 87.625 C-52.67396484 86.61179687 -52.66042969 85.59859375 -52.64648438 84.5546875 C-52.61143063 82.07755596 -52.56229764 79.60157073 -52.5 77.125 C-51.84 77.125 -51.18 77.125 -50.5 77.125 C-50.17 74.485 -49.84 71.845 -49.5 69.125 C-48.84 69.125 -48.18 69.125 -47.5 69.125 C-47.17 68.135 -46.84 67.145 -46.5 66.125 C-44.5625 63.4375 -44.5625 63.4375 -42.5 61.125 C-41.84 61.125 -41.18 61.125 -40.5 61.125 C-40.5 60.465 -40.5 59.805 -40.5 59.125 C-39.84 59.125 -39.18 59.125 -38.5 59.125 C-38.5 58.465 -38.5 57.805 -38.5 57.125 C-37.901875 57.00125 -37.30375 56.8775 -36.6875 56.75 C-34.23768652 56.17024015 -34.23768652 56.17024015 -31.5 54.125 C-30.18 54.125 -28.86 54.125 -27.5 54.125 C-27.5 53.465 -27.5 52.805 -27.5 52.125 C-25.85 52.125 -24.2 52.125 -22.5 52.125 C-22.5 51.465 -22.5 50.805 -22.5 50.125 C-20.91058594 49.92583984 -20.91058594 49.92583984 -19.2890625 49.72265625 C-17.90101721 49.54446125 -16.51299769 49.3660654 -15.125 49.1875 C-14.42632813 49.10048828 -13.72765625 49.01347656 -13.0078125 48.92382812 C-9.13216425 48.46181872 -9.13216425 48.46181872 -5.5 47.125 C-3.46767366 47.03972372 -1.43252994 47.01783865 0.6015625 47.02734375 C2.41914062 47.03217773 2.41914062 47.03217773 4.2734375 47.03710938 C5.54445313 47.04548828 6.81546875 47.05386719 8.125 47.0625 C9.40375 47.06701172 10.6825 47.07152344 12 47.07617188 C15.16671292 47.08798797 18.33333356 47.10446185 21.5 47.125 C21.18954268 45.2080014 20.87655329 43.29141277 20.5625 41.375 C20.30146484 39.77398437 20.30146484 39.77398437 20.03515625 38.140625 C19.61295829 35.76152407 19.12797116 33.45584789 18.5 31.125 C17.84 31.125 17.18 31.125 16.5 31.125 C16.5 30.465 16.5 29.805 16.5 29.125 C15.51 29.125 14.52 29.125 13.5 29.125 C13.5 28.465 13.5 27.805 13.5 27.125 C9.045 26.135 9.045 26.135 4.5 25.125 C4.5 24.465 4.5 23.805 4.5 23.125 C3.448125 23.310625 2.39625 23.49625 1.3125 23.6875 C-2.07119882 24.07579331 -4.26425888 24.00747485 -7.5 23.125 C-7.5 23.785 -7.5 24.445 -7.5 25.125 C-9.81 25.125 -12.12 25.125 -14.5 25.125 C-14.5 25.785 -14.5 26.445 -14.5 27.125 C-15.53125 27.393125 -16.5625 27.66125 -17.625 27.9375 C-21.15180496 28.931873 -24.23735478 30.45573966 -27.5 32.125 C-28.16 32.125 -28.82 32.125 -29.5 32.125 C-29.83 33.115 -30.16 34.105 -30.5 35.125 C-36.04140127 33.77043524 -36.04140127 33.77043524 -38.1875 30.75 C-38.620625 29.88375 -39.05375 29.0175 -39.5 28.125 C-40.03625 27.465 -40.5725 26.805 -41.125 26.125 C-42.72214101 23.80188581 -43.11539499 21.89415607 -43.5 19.125 C-44.16 19.125 -44.82 19.125 -45.5 19.125 C-45.5 17.805 -45.5 16.485 -45.5 15.125 C-44.84 15.125 -44.18 15.125 -43.5 15.125 C-43.5 14.465 -43.5 13.805 -43.5 13.125 C-42.84 13.125 -42.18 13.125 -41.5 13.125 C-41.5 12.465 -41.5 11.805 -41.5 11.125 C-40.51 11.125 -39.52 11.125 -38.5 11.125 C-38.5 10.465 -38.5 9.805 -38.5 9.125 C-37.06570999 8.45145501 -35.62742943 7.78640299 -34.1875 7.125 C-33.38699219 6.75375 -32.58648438 6.3825 -31.76171875 6 C-29.5 5.125 -29.5 5.125 -26.5 5.125 C-26.5 4.465 -26.5 3.805 -26.5 3.125 C-24.19 3.125 -21.88 3.125 -19.5 3.125 C-19.5 2.465 -19.5 1.805 -19.5 1.125 C-12.96071197 0.28765214 -6.58920816 -0.02877383 0 0 Z M-1.5 69.125 C-2.58667969 69.20041016 -2.58667969 69.20041016 -3.6953125 69.27734375 C-10.51603294 69.75132602 -15.63950433 71.77792663 -20.9375 76.125 C-22.54115342 78.17767638 -23.13454429 79.56681 -23.5 82.125 C-24.16 82.125 -24.82 82.125 -25.5 82.125 C-25.5 85.755 -25.5 89.385 -25.5 93.125 C-24.84 93.125 -24.18 93.125 -23.5 93.125 C-23.17 94.775 -22.84 96.425 -22.5 98.125 C-21.18 98.455 -19.86 98.785 -18.5 99.125 C-18.5 99.785 -18.5 100.445 -18.5 101.125 C-14.88895067 103.38864287 -11.83016734 103.39308674 -7.625 103.375 C-5.83449219 103.38273437 -5.83449219 103.38273437 -4.0078125 103.390625 C-0.51769663 103.12634006 2.24653337 102.37862935 5.5 101.125 C5.5 100.465 5.5 99.805 5.5 99.125 C6.2425 98.898125 6.985 98.67125 7.75 98.4375 C11.0425747 96.8660439 12.47497109 95.12504284 14.5 92.125 C14.5 91.465 14.5 90.805 14.5 90.125 C15.16 90.125 15.82 90.125 16.5 90.125 C19.95777212 82.7430586 21.53831461 77.34348391 21.5 69.125 C9.98181458 68.12757633 9.98181458 68.12757633 -1.5 69.125 Z " fill="#404243" transform="translate(944.5,244.875)"/>
<path d="M0 0 C1.40572266 -0.00580078 1.40572266 -0.00580078 2.83984375 -0.01171875 C17.70109933 0.00906622 17.70109933 0.00906622 23.875 4.125 C26.06630534 4.82079454 26.06630534 4.82079454 27.875 5.125 C27.875 5.785 27.875 6.445 27.875 7.125 C28.803125 7.393125 29.73125 7.66125 30.6875 7.9375 C35.98878519 9.9124886 37.93548839 13.36096394 40.875 18.125 C40.875 18.785 40.875 19.445 40.875 20.125 C41.535 20.125 42.195 20.125 42.875 20.125 C44.73276765 23.25998292 45.07640476 25.49971432 44.875 29.125 C45.535 29.125 46.195 29.125 46.875 29.125 C46.875 31.435 46.875 33.745 46.875 36.125 C47.535 36.125 48.195 36.125 48.875 36.125 C48.89813508 47.17307784 48.91592106 58.22114995 48.92681217 69.26924706 C48.93203844 74.39890776 48.93913146 79.52855194 48.95043945 84.65820312 C48.9612774 89.60539539 48.96727877 94.55257172 48.96987724 99.49977493 C48.97172985 101.39048132 48.97534733 103.28118681 48.98073006 105.17188644 C48.9879525 107.81301533 48.98899043 110.45407773 48.98852539 113.09521484 C48.99212067 113.88283707 48.99571594 114.67045929 48.99942017 115.48194885 C48.98905216 120.89689568 48.98905216 120.89689568 47.875 123.125 C44.06288097 123.3208691 40.25029466 123.50529565 36.4375 123.6875 C35.34888672 123.74357422 34.26027344 123.79964844 33.13867188 123.85742188 C32.10419922 123.90576172 31.06972656 123.95410156 30.00390625 124.00390625 C28.56640015 124.07460327 28.56640015 124.07460327 27.09985352 124.14672852 C24.875 124.125 24.875 124.125 23.875 123.125 C23.64212992 121.44316052 23.46235834 119.7537584 23.3125 118.0625 C23.22871094 117.14339844 23.14492188 116.22429687 23.05859375 115.27734375 C22.99800781 114.56707031 22.93742187 113.85679687 22.875 113.125 C22.1325 113.929375 21.39 114.73375 20.625 115.5625 C17.96508525 118.04105692 17.1870489 118.41527524 13.875 119.125 C13.38 120.61 13.38 120.61 12.875 122.125 C9.41 122.62 9.41 122.62 5.875 123.125 C5.875 123.785 5.875 124.445 5.875 125.125 C-0.75729128 126.12580084 -7.23634674 126.27549583 -13.9375 126.25 C-14.97326172 126.25386719 -16.00902344 126.25773437 -17.07617188 126.26171875 C-18.06810547 126.26042969 -19.06003906 126.25914062 -20.08203125 126.2578125 C-20.97897705 126.25668457 -21.87592285 126.25555664 -22.80004883 126.25439453 C-25.125 126.125 -25.125 126.125 -28.125 125.125 C-28.125 124.465 -28.125 123.805 -28.125 123.125 C-29.445 123.125 -30.765 123.125 -32.125 123.125 C-32.125 122.465 -32.125 121.805 -32.125 121.125 C-33.23875 120.939375 -33.23875 120.939375 -34.375 120.75 C-38.76590612 119.75206679 -41.39885708 118.18045876 -44.3125 114.75 C-44.82167969 114.16476562 -45.33085937 113.57953125 -45.85546875 112.9765625 C-47.20059273 111.01475091 -47.70014402 109.448911 -48.125 107.125 C-48.785 107.125 -49.445 107.125 -50.125 107.125 C-50.125 106.135 -50.125 105.145 -50.125 104.125 C-50.785 104.125 -51.445 104.125 -52.125 104.125 C-52.3415625 102.4234375 -52.3415625 102.4234375 -52.5625 100.6875 C-52.73671478 97.31722799 -52.73671478 97.31722799 -54.125 96.125 C-54.19825168 93.26232433 -54.21738205 90.424281 -54.1875 87.5625 C-54.18298828 86.75619141 -54.17847656 85.94988281 -54.17382812 85.11914062 C-54.16200518 83.12106244 -54.14406914 81.12302217 -54.125 79.125 C-53.465 79.125 -52.805 79.125 -52.125 79.125 C-52.021875 78.031875 -51.91875 76.93875 -51.8125 75.8125 C-51.10508296 72.01817226 -50.88030718 71.45641377 -48.125 69.125 C-47.444375 67.949375 -47.444375 67.949375 -46.75 66.75 C-44.09868453 62.46710578 -40.43287207 58.76530869 -36.125 56.125 C-34.805 56.125 -33.485 56.125 -32.125 56.125 C-32.125 55.465 -32.125 54.805 -32.125 54.125 C-30.805 54.125 -29.485 54.125 -28.125 54.125 C-28.125 53.465 -28.125 52.805 -28.125 52.125 C-26.475 52.125 -24.825 52.125 -23.125 52.125 C-23.125 51.465 -23.125 50.805 -23.125 50.125 C-21.53558594 49.92583984 -21.53558594 49.92583984 -19.9140625 49.72265625 C-18.52601721 49.54446125 -17.13799769 49.3660654 -15.75 49.1875 C-15.05132812 49.10048828 -14.35265625 49.01347656 -13.6328125 48.92382812 C-9.75716425 48.46181872 -9.75716425 48.46181872 -6.125 47.125 C-4.01971067 47.03956105 -1.91168843 47.01785275 0.1953125 47.02734375 C1.45214844 47.03056641 2.70898438 47.03378906 4.00390625 47.03710938 C5.32261719 47.04548828 6.64132812 47.05386719 8 47.0625 C9.33984211 47.06751511 10.679686 47.07207799 12.01953125 47.07617188 C15.30473206 47.08798914 18.58984397 47.10446383 21.875 47.125 C20.71178367 42.91872666 19.47451822 38.81127674 17.875 34.75 C17.38 33.46996094 17.38 33.46996094 16.875 32.1640625 C16.04945397 29.95967036 16.04945397 29.95967036 13.875 29.125 C13.875 28.465 13.875 27.805 13.875 27.125 C12.555 27.125 11.235 27.125 9.875 27.125 C9.875 26.465 9.875 25.805 9.875 25.125 C8.225 25.125 6.575 25.125 4.875 25.125 C4.875 24.465 4.875 23.805 4.875 23.125 C0.585 23.125 -3.705 23.125 -8.125 23.125 C-8.125 23.785 -8.125 24.445 -8.125 25.125 C-10.435 25.125 -12.745 25.125 -15.125 25.125 C-15.125 25.785 -15.125 26.445 -15.125 27.125 C-15.970625 27.393125 -16.81625 27.66125 -17.6875 27.9375 C-22.32316131 29.53891027 -26.73297986 31.18619572 -30.8125 33.9375 C-31.9571875 34.5253125 -31.9571875 34.5253125 -33.125 35.125 C-35.4375 34.3125 -35.4375 34.3125 -37.125 33.125 C-37.125 32.465 -37.125 31.805 -37.125 31.125 C-37.785 31.125 -38.445 31.125 -39.125 31.125 C-39.455 29.145 -39.785 27.165 -40.125 25.125 C-41.115 24.795 -42.105 24.465 -43.125 24.125 C-44.74823754 20.36592359 -45.36494929 17.20413787 -45.125 13.125 C-43.145 12.465 -41.165 11.805 -39.125 11.125 C-39.125 10.465 -39.125 9.805 -39.125 9.125 C-36.03690305 7.36037317 -34.89187864 7.125 -31.125 7.125 C-31.125 6.465 -31.125 5.805 -31.125 5.125 C-29.475 5.125 -27.825 5.125 -26.125 5.125 C-26.125 4.465 -26.125 3.805 -26.125 3.125 C-24.475 3.125 -22.825 3.125 -21.125 3.125 C-21.125 2.465 -21.125 1.805 -21.125 1.125 C-14.06167815 0.28216274 -7.11050872 -0.02958603 0 0 Z M6.875 68.125 C6.875 68.785 6.875 69.445 6.875 70.125 C5.79798828 69.87169922 5.79798828 69.87169922 4.69921875 69.61328125 C-3.79535926 68.14464743 -11.47974005 70.55942324 -19.125 74.125 C-19.125 74.785 -19.125 75.445 -19.125 76.125 C-19.73472656 76.1971875 -20.34445312 76.269375 -20.97265625 76.34375 C-23.28276644 76.94826583 -23.28276644 76.94826583 -24.49609375 79.09375 C-26.92135848 84.85042232 -27.52574411 88.34707372 -25.21484375 94.21484375 C-24.05838552 96.24175441 -22.92051897 97.63728428 -21.125 99.125 C-20.465 99.125 -19.805 99.125 -19.125 99.125 C-19.125 99.785 -19.125 100.445 -19.125 101.125 C-17.805 101.125 -16.485 101.125 -15.125 101.125 C-15.125 101.785 -15.125 102.445 -15.125 103.125 C-9.845 103.125 -4.565 103.125 0.875 103.125 C0.875 102.465 0.875 101.805 0.875 101.125 C1.473125 100.980625 2.07125 100.83625 2.6875 100.6875 C4.43650404 100.2377561 6.16177023 99.69607659 7.875 99.125 C7.875 98.465 7.875 97.805 7.875 97.125 C8.473125 97.063125 9.07125 97.00125 9.6875 96.9375 C12.79286033 95.78408045 13.39415754 94.01937389 14.875 91.125 C15.266875 90.42375 15.65875 89.7225 16.0625 89 C17.07380372 87.00680099 17.07380372 87.00680099 16.875 84.125 C17.535 84.125 18.195 84.125 18.875 84.125 C19.38569267 82.5868423 19.88302747 81.04424711 20.375 79.5 C20.6534375 78.64148438 20.931875 77.78296875 21.21875 76.8984375 C22.10526146 73.6268747 22.10526146 73.6268747 21.875 68.125 C16.925 68.125 11.975 68.125 6.875 68.125 Z " fill="#404243" transform="translate(285.125,244.875)"/>
<path d="M0 0 C4.45821166 -0.08674429 8.91620804 -0.14030513 13.375 -0.1875 C14.64601563 -0.21263672 15.91703125 -0.23777344 17.2265625 -0.26367188 C18.43828125 -0.27333984 19.65 -0.28300781 20.8984375 -0.29296875 C22.01911621 -0.3086792 23.13979492 -0.32438965 24.29443359 -0.34057617 C25.18727051 -0.22818604 26.08010742 -0.1157959 27 0 C30.00221784 4.50332676 31.31896025 8.57767579 31 14 C31.66 14 32.32 14 33 14 C33.67528223 15.57967807 34.33989694 17.16391903 35 18.75 C35.37125 19.63171875 35.7425 20.5134375 36.125 21.421875 C37 24 37 24 37 28 C37.66 28.33 38.32 28.66 39 29 C39.40632091 30.98645776 39.72949547 32.99053778 40 35 C40.32635698 36.66804677 40.65725594 38.33524314 41 40 C41.66 40 42.32 40 43 40 C43.495 44.95 43.495 44.95 44 50 C44.66 50 45.32 50 46 50 C46.18175781 50.73605469 46.36351562 51.47210938 46.55078125 52.23046875 C47.87317571 57.36407185 49.25275262 61.46106954 52 66 C52.58786885 68.35964023 53.0561975 70.71374563 53.47265625 73.109375 C53.64667969 73.73328125 53.82070313 74.3571875 54 75 C54.99 75.495 54.99 75.495 56 76 C56.625 79.0625 56.625 79.0625 57 82 C57.66 82 58.32 82 59 82 C59.33 80.35 59.66 78.7 60 77 C60.66 77 61.32 77 62 77 C61.938125 76.360625 61.87625 75.72125 61.8125 75.0625 C62.03271135 71.46571464 63.03572783 68.55741566 64.24609375 65.18359375 C64.95253425 63.13747852 65.50797113 61.10664786 66 59 C66.66 59 67.32 59 68 59 C68.18175781 58.21496094 68.36351562 57.42992187 68.55078125 56.62109375 C70.85729053 46.9810678 70.85729053 46.9810678 72.625 43.0625 C73.85804301 40.31617693 74.55141194 37.9606812 75 35 C75.66 35 76.32 35 77 35 C77 33.35 77 31.7 77 30 C77.66 30 78.32 30 79 30 C79.01417969 29.39414062 79.02835937 28.78828125 79.04296875 28.1640625 C79.38324404 22.18625336 80.67392951 17.90654635 83.6484375 12.71484375 C85.50493074 8.98576051 86.68270622 4.95188133 88 1 C97.24 0.67 106.48 0.34 116 0 C116 2.97 116 5.94 116 9 C115.34 9 114.68 9 114 9 C114 10.32 114 11.64 114 13 C113.34 13 112.68 13 112 13 C111.86464844 13.72445313 111.72929687 14.44890625 111.58984375 15.1953125 C111.03888674 17.81509485 110.35081231 20.31809063 109.5625 22.875 C108.33157599 26.90567275 107.14613007 30.94446284 106 35 C105.34 35 104.68 35 104 35 C103.79890625 35.8353125 103.79890625 35.8353125 103.59375 36.6875 C102.74030624 40.01143884 101.71938429 43.28041954 100.71875 46.5625 C100.0888782 48.69858699 99.52114778 50.83523231 99 53 C98.34 53 97.68 53 97 53 C97.04125 54.0725 97.0825 55.145 97.125 56.25 C97.0114175 59.65747485 96.78726636 61.20739631 95 64 C94.34 64 93.68 64 93 64 C92.97421875 64.73605469 92.9484375 65.47210938 92.921875 66.23046875 C92.57037304 72.27790014 92.11826581 75.39723233 88 80 C86.1030776 84.48965914 84.77611461 89.18808942 84 94 C83.34 94 82.68 94 82 94 C82.33 94.99 82.66 95.98 83 97 C82.67 97.66 82.34 98.32 82 99 C81.34 99 80.68 99 80 99 C80 100.65 80 102.3 80 104 C79.34 104 78.68 104 78 104 C78 105.98 78 107.96 78 110 C77.34 110 76.68 110 76 110 C75.93941406 110.62648438 75.87882812 111.25296875 75.81640625 111.8984375 C75.69072266 113.12433594 75.69072266 113.12433594 75.5625 114.375 C75.44068359 115.59316406 75.44068359 115.59316406 75.31640625 116.8359375 C75 119 75 119 74 121 C63.77 121 53.54 121 43 121 C43 120.01 43 119.02 43 118 C42.34 118 41.68 118 41 118 C40.52422364 116.33478274 40.04866172 114.6695039 39.57421875 113.00390625 C39.03595995 111.12549288 38.48710555 109.25012481 37.9375 107.375 C37.16327636 104.58779489 36.51705107 101.84378089 36 99 C35.01 98.67 34.02 98.34 33 98 C32.12109375 95.890625 32.12109375 95.890625 31.4375 93.25 C30.68018767 90.44794438 29.9432762 87.86565416 28.8125 85.1875 C27.87874078 82.67353287 27.84796925 80.66053815 28 78 C27.34 78 26.68 78 26 78 C24.35834477 75.04365822 23.60684588 72.45328624 23.0625 69.125 C22.29301099 64.96609509 21.00299764 61.74473471 19 58 C18.5 55.5 18.5 55.5 18 53 C17.34 52.67 16.68 52.34 16 52 C15.3671875 50.15234375 15.3671875 50.15234375 14.875 47.9375 C14.62363281 46.83728516 14.62363281 46.83728516 14.3671875 45.71484375 C14.24601562 45.14894531 14.12484375 44.58304687 14 44 C13.67 44 13.34 44 13 44 C13 42.02 13 40.04 13 38 C12.34 38 11.68 38 11 38 C10.5359375 36.5459375 10.5359375 36.5459375 10.0625 35.0625 C9.30476658 32.15934208 9.30476658 32.15934208 8 31 C7.85884839 28.32941149 7.95752893 25.67567762 8 23 C7.34 23 6.68 23 6 23 C5.32243118 21.44219668 4.65840543 19.87849904 4 18.3125 C3.62875 17.44238281 3.2575 16.57226562 2.875 15.67578125 C1.98129512 12.9427998 1.83550324 10.85299066 2 8 C1.34 8 0.68 8 0 8 C0 5.36 0 2.72 0 0 Z " fill="#404242" transform="translate(342,247)"/>
<path d="M0 0 C8.91 0 17.82 0 27 0 C27.94367892 3.77471566 28.11521178 6.65340835 28.09765625 10.515625 C28.09443359 11.76601562 28.09121094 13.01640625 28.08789062 14.3046875 C28.07532227 16.25761719 28.07532227 16.25761719 28.0625 18.25 C28.05798828 19.56742188 28.05347656 20.88484375 28.04882812 22.2421875 C28.03704326 25.49481104 28.0191079 28.74741124 28 32 C36.58 32 45.16 32 54 32 C56.08954032 36.17908064 56.16552619 36.80410573 55 41 C55.66 41 56.32 41 57 41 C56.85879286 42.93784265 56.71187127 44.87526955 56.5625 46.8125 C56.44068359 48.43091797 56.44068359 48.43091797 56.31640625 50.08203125 C56 53 56 53 55 56 C45.76 56 36.52 56 27 56 C27.1093848 63.40791075 27.21965957 70.81570295 27.33904266 78.22344208 C27.39436053 81.67277325 27.44792621 85.1221116 27.49731445 88.5715332 C27.55400801 92.52564526 27.61857495 96.47960944 27.68359375 100.43359375 C27.70030624 101.67523788 27.71701874 102.91688202 27.73423767 104.19615173 C27.7641555 105.90781273 27.7641555 105.90781273 27.79467773 107.65405273 C27.81799416 109.16962013 27.81799416 109.16962013 27.84178162 110.71580505 C27.7464473 112.96529889 27.7464473 112.96529889 29 114 C29.04063832 115.66617115 29.042721 117.33388095 29 119 C29.99 119.33 30.98 119.66 32 120 C32.61875 120.804375 33.2375 121.60875 33.875 122.4375 C36.56483933 125.68112977 38.79701812 126.72570399 42.99804688 127.2487793 C45.26951836 127.41873798 47.53655576 127.53342806 49.8125 127.625 C50.60076172 127.66367187 51.38902344 127.70234375 52.20117188 127.7421875 C54.1337538 127.83588844 56.06684376 127.91900779 58 128 C59.66803559 136.96735932 60.15885046 145.68229909 56 154 C49.64440988 155.45018425 43.38200564 154.92642017 37 154 C37 153.34 37 152.68 37 152 C35.80375 152.04125 34.6075 152.0825 33.375 152.125 C29.57670047 152.13851708 26.55024382 151.42009753 23 150 C23 149.34 23 148.68 23 148 C20.36 147.34 17.72 146.68 15 146 C14.505 144.02 14.505 144.02 14 142 C13.01 142 12.02 142 11 142 C10.896875 141.360625 10.79375 140.72125 10.6875 140.0625 C10.460625 139.381875 10.23375 138.70125 10 138 C9.01 137.67 8.02 137.34 7 137 C5.68359375 134.70703125 5.68359375 134.70703125 4.4375 131.8125 C4.02371094 130.87019531 3.60992187 129.92789063 3.18359375 128.95703125 C0.85047954 123.12809575 -0.37884568 118.02982724 -0.625 111.75 C-0.66294678 110.89897705 -0.70089355 110.0479541 -0.73999023 109.17114258 C-1.38110303 91.80003866 -1.07830331 74.3797201 -1 57 C-7.93 56.505 -7.93 56.505 -15 56 C-15 48.41 -15 40.82 -15 33 C-12.11584117 31.55792059 -9.58278472 31.90605113 -6.375 31.9375 C-5.18648437 31.94652344 -3.99796875 31.95554688 -2.7734375 31.96484375 C-1.85820313 31.97644531 -0.94296875 31.98804688 0 32 C-0.165 30.845 -0.33 29.69 -0.5 28.5 C-1.00451831 23.95933518 -1.11233252 19.43951451 -1.125 14.875 C-1.12951172 14.20662109 -1.13402344 13.53824219 -1.13867188 12.84960938 C-1.12552184 8.40051578 -0.63870592 4.47094142 0 0 Z " fill="#404142" transform="translate(87,216)"/>
<path d="M0 0 C8.91 0 17.82 0 27 0 C27.01981934 4.16471924 27.03963867 8.32943848 27.06005859 12.62036133 C27.12685705 26.35478386 27.20439724 40.08912794 27.28752708 53.82346058 C27.33768256 62.15352854 27.3841251 70.48358652 27.421875 78.8137207 C27.45478113 86.0729299 27.49460462 93.33206225 27.54279006 100.5911867 C27.56806885 104.43604535 27.58984599 108.28085293 27.60334396 112.12577248 C27.6161519 115.74303132 27.63819236 119.36011516 27.66738319 122.97727776 C27.68080864 124.94117749 27.68438293 126.90513677 27.68769836 128.86907959 C27.69886185 130.03435684 27.71002533 131.19963409 27.7215271 132.40022278 C27.72705786 133.41511685 27.73258862 134.43001093 27.73828697 135.47565937 C27.82734299 138.24578205 27.82734299 138.24578205 30 141 C33.96 141.33 37.92 141.66 42 142 C42 150.58 42 159.16 42 168 C39.009375 168.04125 36.01875 168.0825 32.9375 168.125 C32.00929443 168.14320801 31.08108887 168.16141602 30.12475586 168.18017578 C25.01217799 168.21404477 20.83837853 167.66750088 16 166 C16 165.34 16 164.68 16 164 C15.01 164 14.02 164 13 164 C13 163.34 13 162.68 13 162 C12.030625 161.731875 11.06125 161.46375 10.0625 161.1875 C9.051875 160.795625 8.04125 160.40375 7 160 C6.67 159.01 6.34 158.02 6 157 C5.01 156.34 4.02 155.68 3 155 C3 153.68 3 152.36 3 151 C2.34 151 1.68 151 1 151 C-1.60567991 136.28630213 -1.27935673 121.47476399 -1.23571944 106.58699083 C-1.22683057 102.9084495 -1.22869831 99.22991097 -1.2290802 95.55136108 C-1.22814979 89.39391929 -1.21954204 83.23652743 -1.20581055 77.07910156 C-1.18999358 69.96015229 -1.18481613 62.84125716 -1.1855461 55.72229159 C-1.18622036 48.11900658 -1.17929762 40.5157424 -1.1700995 32.91246367 C-1.16796833 30.72613286 -1.16725841 28.53980541 -1.16686058 26.35347366 C-1.16567315 22.29633256 -1.15597773 18.23925602 -1.14526367 14.18212891 C-1.14571686 12.97080795 -1.14617004 11.759487 -1.14663696 10.51145935 C-1.14237198 9.41275009 -1.13810699 8.31404083 -1.13371277 7.18203735 C-1.13203692 6.2238743 -1.13036108 5.26571125 -1.12863445 4.27851295 C-1 2 -1 2 0 0 Z " fill="#3F4141" transform="translate(590,202)"/>
<path d="M0 0 C5.94 0 11.88 0 18 0 C19.53239831 4.59719492 19.18442938 9.18526035 19.1875 14 C19.19974609 15.010625 19.21199219 16.02125 19.22460938 17.0625 C19.22654297 18.031875 19.22847656 19.00125 19.23046875 20 C19.23457764 20.886875 19.23868652 21.77375 19.24291992 22.6875 C19 25 19 25 17 28 C14.24441167 28.25481785 11.63176042 28.36275809 8.875 28.375 C1.0584392 28.60533126 -4.06077992 29.82560261 -9.5703125 35.6640625 C-11 37 -11 37 -13 37 C-13.33 37.99 -13.66 38.98 -14 40 C-15.73913043 44.86956522 -15.73913043 44.86956522 -18 46 C-20.82394841 52.00089037 -22.24025752 58.0550079 -22.31884766 64.66967773 C-22.33871735 65.95047714 -22.35858704 67.23127655 -22.37905884 68.55088806 C-22.39093158 69.92845487 -22.40259465 71.30602351 -22.4140625 72.68359375 C-22.43279555 74.10849604 -22.45237052 75.53338749 -22.4727478 76.95826721 C-22.52384969 80.68831967 -22.56359199 84.418408 -22.60089111 88.14862061 C-22.64106924 91.96310135 -22.69209823 95.77743568 -22.7421875 99.59179688 C-22.83868664 107.06110458 -22.92216933 114.53047016 -23 122 C-30.92 122 -38.84 122 -47 122 C-47 122.66 -47 123.32 -47 124 C-47.99 123.67 -48.98 123.34 -50 123 C-51.05377503 116.96669334 -51.14798794 111.08765164 -51.14526367 104.97167969 C-51.14862228 103.88307648 -51.1519809 102.79447327 -51.15544128 101.67288208 C-51.16490965 98.08920133 -51.16689185 94.50556746 -51.16796875 90.921875 C-51.1711825 88.42799867 -51.17454666 85.93412252 -51.17805481 83.44024658 C-51.18403455 78.22187869 -51.18589572 73.00352733 -51.18530273 67.78515625 C-51.18470036 61.75304535 -51.1952897 55.72102341 -51.2110464 49.68893504 C-51.22568375 43.87809938 -51.22929132 38.06729909 -51.22869301 32.25644684 C-51.22987558 29.78601974 -51.23431279 27.31559204 -51.24202538 24.8451767 C-51.25177932 21.40028882 -51.24896618 17.95563349 -51.24291992 14.51074219 C-51.24853943 13.48524261 -51.25415894 12.45974304 -51.25994873 11.40316772 C-51.25575424 10.4667746 -51.25155975 9.53038147 -51.24723816 8.56561279 C-51.24805531 7.34450869 -51.24805531 7.34450869 -51.24888897 6.09873581 C-51 4 -51 4 -49 1 C-46.47802734 0.65942383 -46.47802734 0.65942383 -43.3359375 0.70703125 C-42.21445313 0.71669922 -41.09296875 0.72636719 -39.9375 0.73632812 C-38.761875 0.76146484 -37.58625 0.78660156 -36.375 0.8125 C-34.59996094 0.83280273 -34.59996094 0.83280273 -32.7890625 0.85351562 C-29.85918249 0.88895772 -26.92953534 0.94276595 -24 1 C-23.67 6.94 -23.34 12.88 -23 19 C-21.68 16.69 -20.36 14.38 -19 12 C-18.01 12 -17.02 12 -16 12 C-16 11.34 -16 10.68 -16 10 C-11.64705882 6 -11.64705882 6 -8 6 C-8 5.34 -8 4.68 -8 4 C-6.68 4 -5.36 4 -4 4 C-4 3.34 -4 2.68 -4 2 C-2.68 2 -1.36 2 0 2 C0 1.34 0 0.68 0 0 Z " fill="#404142" transform="translate(210,246)"/>
<path d="M0 0 C0 2.97 0 5.94 0 9 C-0.66 9 -1.32 9 -2 9 C-1.67 18.9 -1.34 28.8 -1 39 C0.98 39 2.96 39 5 39 C5 38.34 5 37.68 5 37 C8.22791555 34.8480563 9.28400809 34.79913557 13 35 C13 34.34 13 33.68 13 33 C14.33804687 32.60167969 14.33804687 32.60167969 15.703125 32.1953125 C17.45882813 31.66550781 17.45882813 31.66550781 19.25 31.125 C20.41015625 30.77695313 21.5703125 30.42890625 22.765625 30.0703125 C25.363295 29.21069706 27.66537689 28.41189112 30 27 C30.33 26.34 30.66 25.68 31 25 C33.765625 24.40234375 33.765625 24.40234375 37.25 23.9375 C41.19851216 23.39703623 45.10075198 22.82822373 49 22 C49 21.34 49 20.68 49 20 C50.134375 19.855625 51.26875 19.71125 52.4375 19.5625 C55.80777201 19.38828522 55.80777201 19.38828522 57 18 C58.51928038 17.92820036 60.04167482 17.91607993 61.5625 17.9375 C62.38878906 17.94652344 63.21507812 17.95554688 64.06640625 17.96484375 C65.02353516 17.98224609 65.02353516 17.98224609 66 18 C66 17.34 66 16.68 66 16 C75.9 15.505 75.9 15.505 86 15 C86 21 86 21 84.6875 22.75 C82.15385525 24.62677389 80.0074234 25.99752553 77 27 C76.28460355 28.30783414 75.62345927 29.64592439 75 31 C74.04119966 32.28187437 73.04006043 33.5331293 72 34.75 C71.484375 35.36359375 70.96875 35.9771875 70.4375 36.609375 C69 38 69 38 67 38 C66.896875 38.78375 66.79375 39.5675 66.6875 40.375 C66 43 66 43 63 45 C60.93314567 46.73615764 60.07175288 47.79026082 59.1875 50.375 C57.53008731 54.03875436 55.14956314 55.52055668 52 58 C51.505 58.99 51.505 58.99 51 60 C50.34 60 49.68 60 49 60 C49 60.99 49 61.98 49 63 C48.34 63 47.68 63 47 63 C46.67 63.99 46.34 64.98 46 66 C44.0625 69.1875 44.0625 69.1875 42 72 C41.34 72 40.68 72 40 72 C39.505 73.485 39.505 73.485 39 75 C38.34 75 37.68 75 37 75 C36.690625 75.94875 36.38125 76.8975 36.0625 77.875 C35 81 35 81 34 83 C33.34 83 32.68 83 32 83 C32 83.99 32 84.98 32 86 C31.34 86 30.68 86 30 86 C30 86.99 30 87.98 30 89 C29.34 89 28.68 89 28 89 C27.67 91.31 27.34 93.62 27 96 C26.01 96 25.02 96 24 96 C21.99424969 101.74981756 20.86398798 106.71100211 20.9375 112.8125 C20.94652344 113.78832031 20.95554687 114.76414062 20.96484375 115.76953125 C20.97644531 116.50558594 20.98804688 117.24164063 21 118 C21.66 118.33 22.32 118.66 23 119 C21.515 119.495 21.515 119.495 20 120 C19.34 119.67 18.68 119.34 18 119 C18 118.01 18 117.02 18 116 C17.34 116 16.68 116 16 116 C15.67386719 115.11957031 15.34773438 114.23914063 15.01171875 113.33203125 C14.57472656 112.17058594 14.13773438 111.00914062 13.6875 109.8125 C13.25824219 108.66394531 12.82898437 107.51539063 12.38671875 106.33203125 C11.12207716 103.05235042 11.12207716 103.05235042 9.4375 100.4453125 C7.81136999 97.67912395 7.06972111 95.17552012 6.3125 92.0625 C6.06113281 91.06347656 5.80976562 90.06445312 5.55078125 89.03515625 C4.991775 85.954675 4.90224718 83.12343535 5 80 C4.34 80 3.68 80 3 80 C2.49564306 78.0636296 1.99666126 76.12585854 1.5 74.1875 C1.2215625 73.10855469 0.943125 72.02960938 0.65625 70.91796875 C0 68 0 68 0 65 C-0.66 65 -1.32 65 -2 65 C-4.03362915 57.84598316 -5.4889086 51.45585614 -5 44 C-4.505 43.505 -4.505 43.505 -4 43 C-3.92423181 41.00653894 -3.91696451 39.01041976 -3.9375 37.015625 C-3.94523437 35.76910156 -3.95296875 34.52257812 -3.9609375 33.23828125 C-3.9865201 30.62629755 -4.01254499 28.01431813 -4.0390625 25.40234375 C-4.14775551 7.66726842 -4.14775551 7.66726842 -3 1 C-1 0 -1 0 0 0 Z " fill="#1598BF" transform="translate(1063,142)"/>
<path d="M0 0 C0 2.97 0 5.94 0 9 C-0.66 9 -1.32 9 -2 9 C-1.67 18.9 -1.34 28.8 -1 39 C0.98 39 2.96 39 5 39 C5 38.34 5 37.68 5 37 C8.22791555 34.8480563 9.28400809 34.79913557 13 35 C13 34.34 13 33.68 13 33 C14.43554025 32.49440092 15.8735202 31.9957251 17.3125 31.5 C18.11300781 31.2215625 18.91351562 30.943125 19.73828125 30.65625 C22 30 22 30 25 30 C25 30.99 25 31.98 25 33 C23.07942708 33.45572917 21.15885417 33.91145833 19.23828125 34.3671875 C16.74200393 35.0729413 14.40133022 36.0227751 12 37 C12.11793712 42.39363237 12.24216181 47.78706847 12.37231445 53.18041992 C12.4157282 55.01664247 12.45739839 56.85290708 12.49731445 58.68920898 C12.55486169 61.32288311 12.61859998 63.95634421 12.68359375 66.58984375 C12.70030624 67.41588608 12.71701874 68.24192841 12.73423767 69.09300232 C12.47807433 72.85476753 12.47807433 72.85476753 14 76 C14.18810626 78.81562232 14.32787599 81.61867697 14.4375 84.4375 C14.74459197 91.14842127 15.41525719 97.44972973 17 104 C17.33 104 17.66 104 18 104 C18.66 101.69 19.32 99.38 20 97 C20.99 97 21.98 97 23 97 C24.73662334 93.77484237 25.8905928 90.48670834 27 87 C27.99 87 28.98 87 30 87 C30 87.66 30 88.32 30 89 C29.34 89 28.68 89 28 89 C27.67 91.31 27.34 93.62 27 96 C26.01 96 25.02 96 24 96 C21.99424969 101.74981756 20.86398798 106.71100211 20.9375 112.8125 C20.94652344 113.78832031 20.95554687 114.76414062 20.96484375 115.76953125 C20.97644531 116.50558594 20.98804688 117.24164063 21 118 C21.66 118.33 22.32 118.66 23 119 C21.515 119.495 21.515 119.495 20 120 C19.34 119.67 18.68 119.34 18 119 C18 118.01 18 117.02 18 116 C17.34 116 16.68 116 16 116 C15.67386719 115.11957031 15.34773438 114.23914063 15.01171875 113.33203125 C14.57472656 112.17058594 14.13773438 111.00914062 13.6875 109.8125 C13.25824219 108.66394531 12.82898437 107.51539063 12.38671875 106.33203125 C11.12207716 103.05235042 11.12207716 103.05235042 9.4375 100.4453125 C7.81136999 97.67912395 7.06972111 95.17552012 6.3125 92.0625 C6.06113281 91.06347656 5.80976562 90.06445312 5.55078125 89.03515625 C4.991775 85.954675 4.90224718 83.12343535 5 80 C4.34 80 3.68 80 3 80 C2.49564306 78.0636296 1.99666126 76.12585854 1.5 74.1875 C1.2215625 73.10855469 0.943125 72.02960938 0.65625 70.91796875 C0 68 0 68 0 65 C-0.66 65 -1.32 65 -2 65 C-4.03362915 57.84598316 -5.4889086 51.45585614 -5 44 C-4.505 43.505 -4.505 43.505 -4 43 C-3.92423181 41.00653894 -3.91696451 39.01041976 -3.9375 37.015625 C-3.94523437 35.76910156 -3.95296875 34.52257812 -3.9609375 33.23828125 C-3.9865201 30.62629755 -4.01254499 28.01431813 -4.0390625 25.40234375 C-4.14775551 7.66726842 -4.14775551 7.66726842 -3 1 C-1 0 -1 0 0 0 Z " fill="#0981AA" transform="translate(1063,142)"/>
<path d="M0 0 C0.93650391 0.08894531 1.87300781 0.17789063 2.83789062 0.26953125 C3.81822266 0.36878906 4.79855469 0.46804687 5.80859375 0.5703125 C7.28489258 0.70759766 7.28489258 0.70759766 8.79101562 0.84765625 C16.11520901 1.56442776 16.11520901 1.56442776 17.24609375 2.6953125 C18.74106217 2.90230813 20.24275295 3.06210509 21.74609375 3.1953125 C26.13498264 3.58420139 26.13498264 3.58420139 27.24609375 4.6953125 C28.70168745 4.79389853 30.16217294 4.82503393 31.62109375 4.8203125 C32.41257812 4.82289063 33.2040625 4.82546875 34.01953125 4.828125 C36.41952871 4.78148916 36.41952871 4.78148916 39.24609375 3.6953125 C39.24609375 3.0353125 39.24609375 2.3753125 39.24609375 1.6953125 C45.18609375 1.6953125 51.12609375 1.6953125 57.24609375 1.6953125 C57.24609375 2.3553125 57.24609375 3.0153125 57.24609375 3.6953125 C58.56609375 3.6953125 59.88609375 3.6953125 61.24609375 3.6953125 C61.24609375 4.3553125 61.24609375 5.0153125 61.24609375 5.6953125 C60.19421875 5.5303125 59.14234375 5.3653125 58.05859375 5.1953125 C52.14030863 4.43819855 46.20088196 4.61361571 40.24609375 4.6953125 C40.24609375 5.3553125 40.24609375 6.0153125 40.24609375 6.6953125 C38.59609375 6.6953125 36.94609375 6.6953125 35.24609375 6.6953125 C35.24609375 7.3553125 35.24609375 8.0153125 35.24609375 8.6953125 C33.26609375 8.6953125 31.28609375 8.6953125 29.24609375 8.6953125 C29.24609375 10.0153125 29.24609375 11.3353125 29.24609375 12.6953125 C33.70109375 13.6853125 33.70109375 13.6853125 38.24609375 14.6953125 C37.91609375 15.3553125 37.58609375 16.0153125 37.24609375 16.6953125 C32.29609375 15.7053125 32.29609375 15.7053125 27.24609375 14.6953125 C27.24609375 14.0353125 27.24609375 13.3753125 27.24609375 12.6953125 C25.26609375 13.0253125 23.28609375 13.3553125 21.24609375 13.6953125 C21.24609375 12.7053125 21.24609375 11.7153125 21.24609375 10.6953125 C19.94671875 10.7159375 18.64734375 10.7365625 17.30859375 10.7578125 C15.95443742 10.77930704 14.59853292 10.76679449 13.24609375 10.6953125 C12.91609375 10.3653125 12.58609375 10.0353125 12.24609375 9.6953125 C10.91827497 9.48927165 9.5831348 9.3290166 8.24609375 9.1953125 C4.35720486 8.80642361 4.35720486 8.80642361 3.24609375 7.6953125 C1.73443721 7.30382489 0.21139743 6.95558793 -1.31640625 6.6328125 C-2.14269531 6.45621094 -2.96898437 6.27960938 -3.8203125 6.09765625 C-4.45839844 5.96488281 -5.09648438 5.83210937 -5.75390625 5.6953125 C-5.75390625 5.0353125 -5.75390625 4.3753125 -5.75390625 3.6953125 C-6.41390625 3.6953125 -7.07390625 3.6953125 -7.75390625 3.6953125 C-7.42390625 2.7053125 -7.09390625 1.7153125 -6.75390625 0.6953125 C-4.21916436 -0.57205845 -2.81140043 -0.26930229 0 0 Z " fill="#1B91C2" transform="translate(944.75390625,220.3046875)"/>
<path d="M0 0 C1.98 0 3.96 0 6 0 C8.21538462 5.41538462 8.21538462 5.41538462 7.125 8.375 C6.75375 8.91125 6.3825 9.4475 6 10 C5.34 10 4.68 10 4 10 C4 8.02 4 6.04 4 4 C1.89303095 4.42379834 -0.21053527 4.8645403 -2.3125 5.3125 C-3.48425781 5.55613281 -4.65601563 5.79976562 -5.86328125 6.05078125 C-8.95464904 6.98627611 -9.9781011 7.6193771 -12 10 C-12.680625 10.165 -13.36125 10.33 -14.0625 10.5 C-16.39687193 10.87267251 -16.39687193 10.87267251 -18 14 C-20.05859375 15.0625 -20.05859375 15.0625 -22.4375 16 C-25.6774473 17.28103353 -27.5833979 18.51998851 -30 21 C-30.66 21 -31.32 21 -32 21 C-32.433125 21.87205078 -32.433125 21.87205078 -32.875 22.76171875 C-33.57064941 24.14577122 -34.27691019 25.52461502 -35 26.89453125 C-39.34043593 35.21935172 -40.63669625 42.6124321 -40 52 C-39.67 52.33 -39.34 52.66 -39 53 C-38.84040619 55.03925418 -38.72273626 57.0818467 -38.625 59.125 C-38.25847386 64.52830472 -37.39832099 68.20335802 -35 73 C-34.10096501 76.58415281 -33.864838 79.93619525 -33.875 83.625 C-33.87242187 84.56601563 -33.86984375 85.50703125 -33.8671875 86.4765625 C-34 89 -34 89 -35 92 C-35.66 92 -36.32 92 -37 92 C-36.97679687 90.96359375 -36.95359375 89.9271875 -36.9296875 88.859375 C-36.91092333 87.48959056 -36.89272382 86.1197983 -36.875 84.75 C-36.85824219 84.06808594 -36.84148438 83.38617188 -36.82421875 82.68359375 C-36.78721508 78.87221608 -37.04531768 76.27521198 -39 73 C-39.165 71.948125 -39.33 70.89625 -39.5 69.8125 C-39.665 68.884375 -39.83 67.95625 -40 67 C-40.66 66.67 -41.32 66.34 -42 66 C-42 62.37 -42 58.74 -42 55 C-42.66 55 -43.32 55 -44 55 C-45.32765661 45.24461012 -44.77758812 38.09256674 -41 29 C-40.67 28.01 -40.34 27.02 -40 26 C-39.34 26 -38.68 26 -38 26 C-37.34 25.01 -36.68 24.02 -36 23 C-32.44444444 19.22222222 -32.44444444 19.22222222 -30 18 C-29.67 17.01 -29.34 16.02 -29 15 C-28.01 15 -27.02 15 -26 15 C-26 14.34 -26 13.68 -26 13 C-25.01 13 -24.02 13 -23 13 C-23 12.34 -23 11.68 -23 11 C-21.35 10.67 -19.7 10.34 -18 10 C-18 9.34 -18 8.68 -18 8 C-14.91190305 6.23537317 -13.76687864 6 -10 6 C-10 5.34 -10 4.68 -10 4 C-6.49223216 2.39644899 -3.85645121 1.77963136 0 2 C0 1.34 0 0.68 0 0 Z " fill="#2A6C8A" transform="translate(1056,132)"/>
<path d="M0 0 C0.66 0 1.32 0 2 0 C2 0.66 2 1.32 2 2 C2.7425 2.185625 3.485 2.37125 4.25 2.5625 C8.85495787 4.96963707 10.38041545 9.14124634 12 14 C14.46143484 14.95875046 14.46143484 14.95875046 17.375 15.5625 C20.8907399 16.38345773 22.95674231 16.97116154 26 19 C28.32387947 19.39387788 30.65793749 19.73486085 33 20 C33 20.66 33 21.32 33 22 C33.54269531 22.13535156 34.08539062 22.27070313 34.64453125 22.41015625 C36.33003125 22.83223005 38.01485259 23.25701766 39.69921875 23.68359375 C45.13860693 25.05588384 50.57884669 26.3863419 56.0625 27.5703125 C57.33336493 27.85215755 58.59659999 28.17153826 59.84765625 28.53125 C63.76897865 29.38525851 67.80826732 29.34729335 71.80859375 29.5234375 C75.25666364 30.03832676 77.10525457 31.13007216 80 33 C83.69523952 33.71923208 83.69523952 33.71923208 87 34 C87 34.66 87 35.32 87 36 C87.70125 36.103125 88.4025 36.20625 89.125 36.3125 C92.39137647 37.09359003 95.0471852 38.42058743 98 40 C98 40.33 98 40.66 98 41 C96.02 41 94.04 41 92 41 C92 40.34 92 39.68 92 39 C90.989375 39.04125 89.97875 39.0825 88.9375 39.125 C83.91819804 38.96565708 79.72654979 37.5755166 75 36 C74.67 35.34 74.34 34.68 74 34 C72.824375 34.061875 72.824375 34.061875 71.625 34.125 C69 34 69 34 67 32 C64.1092504 31.5326333 61.28339431 31.16300658 58.375 30.875 C57.57320312 30.78863281 56.77140625 30.70226562 55.9453125 30.61328125 C53.96436365 30.40103673 51.98227282 30.19950069 50 30 C50 29.34 50 28.68 50 28 C46.7 28 43.4 28 40 28 C40 27.34 40 26.68 40 26 C39.2575 26.20625 38.515 26.4125 37.75 26.625 C34.53096893 27.06395878 33.80514166 26.44412848 31 25 C29.51053021 24.62238794 28.00908927 24.28941438 26.5 24 C21.55156568 23.0509852 18.53638655 21.53638655 15 18 C14.195625 17.566875 13.39125 17.13375 12.5625 16.6875 C9.38006308 14.59174886 8.02487404 12.20060735 6 9 C5.2575 8.2575 4.515 7.515 3.75 6.75 C3.1725 6.1725 2.595 5.595 2 5 C2 4.34 2 3.68 2 3 C1.34 3 0.68 3 0 3 C0 2.01 0 1.02 0 0 Z " fill="#27657E" transform="translate(995,244)"/>
<path d="M0 0 C0.33 0 0.66 0 1 0 C1 43.23 1 86.46 1 131 C0.34 131 -0.32 131 -1 131 C-2.00054183 127.99837452 -2.12339871 126.02851464 -2.12025452 122.89375305 C-2.12162918 121.8378598 -2.12300385 120.78196655 -2.12442017 119.69407654 C-2.12082489 118.53602005 -2.11722961 117.37796356 -2.11352539 116.18481445 C-2.11367142 114.96518005 -2.11381744 113.74554565 -2.1139679 112.48895264 C-2.11339017 109.14417149 -2.10837126 105.79945189 -2.10139394 102.45468163 C-2.09514711 98.95930681 -2.09455555 95.46393118 -2.09336853 91.96855164 C-2.09025914 85.34939933 -2.08205103 78.73026353 -2.07201904 72.1111185 C-2.06084574 64.57552349 -2.05534438 57.03992769 -2.05032361 49.50432646 C-2.0398681 34.00287475 -2.02227624 18.5014395 -2 3 C-1.34 3 -0.68 3 0 3 C0 2.01 0 1.02 0 0 Z " fill="#374A51" transform="translate(616,205)"/>
<path d="M0 0 C0 2.97 0 5.94 0 9 C-0.66 9 -1.32 9 -2 9 C-1.67 18.9 -1.34 28.8 -1 39 C0.98 39 2.96 39 5 39 C5 38.34 5 37.68 5 37 C8.22791555 34.8480563 9.28400809 34.79913557 13 35 C13 34.34 13 33.68 13 33 C14.43554025 32.49440092 15.8735202 31.9957251 17.3125 31.5 C18.11300781 31.2215625 18.91351562 30.943125 19.73828125 30.65625 C22 30 22 30 25 30 C25 30.99 25 31.98 25 33 C23.783125 33.28875 22.56625 33.5775 21.3125 33.875 C15.21037592 35.11465401 15.21037592 35.11465401 10.6875 38.9375 C8.48141805 41.63382239 6.28713352 42.22386763 3.03515625 43.2890625 C0.91634615 44.02922265 -1.01351161 44.96009332 -3 46 C-2.85915204 47.79206547 -2.71216299 49.58364917 -2.5625 51.375 C-2.44068359 52.87160156 -2.44068359 52.87160156 -2.31640625 54.3984375 C-2.15034374 56.97927613 -2.15034374 56.97927613 -1 59 C-0.960008 60.99960012 -0.95653201 63.00047242 -1 65 C-4.72598542 58.61259643 -5.68409858 51.27053602 -5 44 C-4.505 43.505 -4.505 43.505 -4 43 C-3.92423181 41.00653894 -3.91696451 39.01041976 -3.9375 37.015625 C-3.94523437 35.76910156 -3.95296875 34.52257812 -3.9609375 33.23828125 C-3.9865201 30.62629755 -4.01254499 28.01431813 -4.0390625 25.40234375 C-4.14775551 7.66726842 -4.14775551 7.66726842 -3 1 C-1 0 -1 0 0 0 Z " fill="#198DB9" transform="translate(1063,142)"/>
<path d="M0 0 C0.66 0 1.32 0 2 0 C2 0.66 2 1.32 2 2 C2.7425 2.185625 3.485 2.37125 4.25 2.5625 C8.85495787 4.96963707 10.38041545 9.14124634 12 14 C14.46143484 14.95875046 14.46143484 14.95875046 17.375 15.5625 C20.8907399 16.38345773 22.95674231 16.97116154 26 19 C28.32387947 19.39387788 30.65793749 19.73486085 33 20 C33 20.66 33 21.32 33 22 C33.61875 22.12375 34.2375 22.2475 34.875 22.375 C37 23 37 23 39 25 C35.97546257 24.49591043 32.95339363 23.99143965 29.9375 23.4375 C27.06199368 22.92375106 27.06199368 22.92375106 24.375 23.0625 C20.03753013 22.94835606 17.93284937 20.93284937 15 18 C14.195625 17.566875 13.39125 17.13375 12.5625 16.6875 C9.38006308 14.59174886 8.02487404 12.20060735 6 9 C5.2575 8.2575 4.515 7.515 3.75 6.75 C3.1725 6.1725 2.595 5.595 2 5 C2 4.34 2 3.68 2 3 C1.34 3 0.68 3 0 3 C0 2.01 0 1.02 0 0 Z " fill="#1B91C2" transform="translate(995,244)"/>
<path d="M0 0 C2.38564077 0.57584432 4.66682784 1.22227595 7 2 C7 2.66 7 3.32 7 4 C8.32 3.67 9.64 3.34 11 3 C13 6 13 6 12.625 8.6875 C12.315625 9.8321875 12.315625 9.8321875 12 11 C11.34 11 10.68 11 10 11 C9.67 11.66 9.34 12.32 9 13 C5.87709365 12.51421457 3.00419641 12.0013988 0 11 C0 10.34 0 9.68 0 9 C-1.32 8.67 -2.64 8.34 -4 8 C-4 7.34 -4 6.68 -4 6 C-0.7 6.99 2.6 7.98 6 9 C5.67 7.02 5.34 5.04 5 3 C4.360625 2.87625 3.72125 2.7525 3.0625 2.625 C2.381875 2.41875 1.70125 2.2125 1 2 C0.67 1.34 0.34 0.68 0 0 Z " fill="#267494" transform="translate(1110,284)"/>
<path d="M0 0 C1.09570312 0.19464844 2.19140625 0.38929688 3.3203125 0.58984375 C4.16335938 0.74582031 5.00640625 0.90179688 5.875 1.0625 C5.875 1.3925 5.875 1.7225 5.875 2.0625 C4.225 2.3925 2.575 2.7225 0.875 3.0625 C4.47893879 4.68059497 7.9233076 6.13465518 11.75 7.125 C12.78125 7.434375 13.8125 7.74375 14.875 8.0625 C15.205 8.7225 15.535 9.3825 15.875 10.0625 C15.215 9.918125 14.555 9.77375 13.875 9.625 C11.44715869 9.16977975 9.07576037 8.84019407 6.625 8.5625 C2.875 8.0625 2.875 8.0625 1.875 7.0625 C0.36334346 6.67101239 -1.15969632 6.32277543 -2.6875 6 C-3.51378906 5.82339844 -4.34007812 5.64679688 -5.19140625 5.46484375 C-5.82949219 5.33207031 -6.46757813 5.19929687 -7.125 5.0625 C-7.125 4.4025 -7.125 3.7425 -7.125 3.0625 C-7.785 3.0625 -8.445 3.0625 -9.125 3.0625 C-8.795 2.0725 -8.465 1.0825 -8.125 0.0625 C-5.2144446 -1.3927777 -3.16650948 -0.57266661 0 0 Z " fill="#344850" transform="translate(946.125,220.9375)"/>
<path d="M0 0 C4.76923077 2.38461538 4.76923077 2.38461538 5.9375 5.5 C7.4222398 8.99350542 9.65599493 9.43472103 13 11 C13.33 11.99 13.66 12.98 14 14 C14.99 14.309375 15.98 14.61875 17 14.9375 C17.99 15.288125 18.98 15.63875 20 16 C20.875 18.125 20.875 18.125 21 20 C22.32 20 23.64 20 25 20 C25 20.66 25 21.32 25 22 C19.43820225 22.37078652 19.43820225 22.37078652 17.375 20.625 C16.92125 20.08875 16.4675 19.5525 16 19 C13.90010348 17.82425289 13.90010348 17.82425289 12 17 C12 15.68 12 14.36 12 13 C9.66785852 11.79371992 7.50357861 10.8345262 5 10 C4.67 9.34 4.34 8.68 4 8 C3.01 7.67 2.02 7.34 1 7 C0.67 4.69 0.34 2.38 0 0 Z " fill="#2E5E75" transform="translate(1085,262)"/>
<path d="M0 0 C3.3 0 6.6 0 10 0 C10 0.66 10 1.32 10 2 C9.01 2.33 8.02 2.66 7 3 C6.67 3.66 6.34 4.32 6 5 C5.32195312 4.98839844 4.64390625 4.97679687 3.9453125 4.96484375 C-5.00621502 4.87805609 -13.44716975 5.21103362 -22 8 C-21.67 7.34 -21.34 6.68 -21 6 C-19.68 6 -18.36 6 -17 6 C-17 5.34 -17 4.68 -17 4 C-15.2984375 3.7834375 -15.2984375 3.7834375 -13.5625 3.5625 C-10.19222799 3.38828522 -10.19222799 3.38828522 -9 2 C-7.48071962 1.92820036 -5.95832518 1.91607993 -4.4375 1.9375 C-3.61121094 1.94652344 -2.78492188 1.95554688 -1.93359375 1.96484375 C-1.29550781 1.97644531 -0.65742187 1.98804688 0 2 C0 1.34 0 0.68 0 0 Z " fill="#335669" transform="translate(1129,158)"/>
<path d="M0 0 C0 2.97 0 5.94 0 9 C-0.66 9 -1.32 9 -2 9 C-1.67 18.9 -1.34 28.8 -1 39 C0.65 39 2.3 39 4 39 C2.75 40.5 2.75 40.5 1 42 C-0.32 42 -1.64 42 -3 42 C-3.20018063 37.60465073 -3.38274509 33.20872822 -3.5625 28.8125 C-3.61857422 27.58595703 -3.67464844 26.35941406 -3.73242188 25.09570312 C-4.37854001 8.77045152 -4.37854001 8.77045152 -3 1 C-1 0 -1 0 0 0 Z " fill="#2B4550" transform="translate(1063,142)"/>
<path d="M0 0 C5.94 0 11.88 0 18 0 C18 0.66 18 1.32 18 2 C19.32 2 20.64 2 22 2 C22 2.66 22 3.32 22 4 C20.948125 3.835 19.89625 3.67 18.8125 3.5 C12.89421488 2.74288605 6.95478821 2.91830321 1 3 C1 3.66 1 4.32 1 5 C-2.63 5 -6.26 5 -10 5 C-10 4.67 -10 4.34 -10 4 C-8.906875 3.855625 -7.81375 3.71125 -6.6875 3.5625 C-3.06877013 3.11711896 -3.06877013 3.11711896 0 2 C0 1.34 0 0.68 0 0 Z " fill="#276E8B" transform="translate(984,222)"/>
<path d="M0 0 C0.66 0 1.32 0 2 0 C2.65134925 1.56020867 3.29582964 3.12328579 3.9375 4.6875 C4.47697266 5.99267578 4.47697266 5.99267578 5.02734375 7.32421875 C6.65731934 11.80828814 7.13810801 15.86679374 7.125 20.625 C7.12757813 21.56601563 7.13015625 22.50703125 7.1328125 23.4765625 C7 26 7 26 6 29 C5.34 29 4.68 29 4 29 C4.02320313 27.96359375 4.04640625 26.9271875 4.0703125 25.859375 C4.08907667 24.48959056 4.10727618 23.1197983 4.125 21.75 C4.14175781 21.06808594 4.15851562 20.38617188 4.17578125 19.68359375 C4.21278492 15.87221608 3.95468232 13.27521198 2 10 C1.835 8.948125 1.67 7.89625 1.5 6.8125 C1.335 5.884375 1.17 4.95625 1 4 C0.34 3.67 -0.32 3.34 -1 3 C-0.67 2.01 -0.34 1.02 0 0 Z " fill="#35424C" transform="translate(1015,195)"/>
<path d="M0 0 C0.66 0.33 1.32 0.66 2 1 C2.05800828 4.60409919 2.09359869 8.20807851 2.125 11.8125 C2.14175781 12.83666016 2.15851563 13.86082031 2.17578125 14.91601562 C2.18222656 15.89892578 2.18867188 16.88183594 2.1953125 17.89453125 C2.20578613 18.80050049 2.21625977 19.70646973 2.22705078 20.63989258 C2 23 2 23 0 26 C-3.0390625 26.29296875 -3.0390625 26.29296875 -6.625 26.1875 C-7.81351563 26.16042969 -9.00203125 26.13335937 -10.2265625 26.10546875 C-11.14179688 26.07066406 -12.05703125 26.03585937 -13 26 C-13 25.34 -13 24.68 -13 24 C-9 23 -9 23 0 23 C0 15.41 0 7.82 0 0 Z " fill="#364B53" transform="translate(227,248)"/>
<path d="M0 0 C3.41074011 5.11611016 2.62965152 11.03840586 2 17 C0.96948179 20.17159489 -0.13934004 22.21698591 -3 24 C-6.09100705 24.54273535 -8.90043542 24.42543043 -12 24 C-12 23.34 -12 22.68 -12 22 C-12.66 22 -13.32 22 -14 22 C-14 21.34 -14 20.68 -14 20 C-13.01 20 -12.02 20 -11 20 C-11 20.66 -11 21.32 -11 22 C-9.02 21.67 -7.04 21.34 -5 21 C-5 20.01 -5 19.02 -5 18 C-3.35 18 -1.7 18 0 18 C0 12.06 0 6.12 0 0 Z " fill="#2080AA" transform="translate(1021,206)"/>
<path d="M0 0 C1.98 0 3.96 0 6 0 C8.21538462 5.41538462 8.21538462 5.41538462 7.125 8.375 C6.75375 8.91125 6.3825 9.4475 6 10 C5.34 10 4.68 10 4 10 C4 8.02 4 6.04 4 4 C3.39671875 4.15597656 2.7934375 4.31195313 2.171875 4.47265625 C1.37265625 4.66730469 0.5734375 4.86195313 -0.25 5.0625 C-1.03890625 5.25972656 -1.8278125 5.45695313 -2.640625 5.66015625 C-5.10394822 6.01497267 -6.65604132 5.76877544 -9 5 C-8.01 4.67 -7.02 4.34 -6 4 C-5.67 3.34 -5.34 2.68 -5 2 C-3.35 2 -1.7 2 0 2 C0 1.34 0 0.68 0 0 Z " fill="#2388B5" transform="translate(1056,132)"/>
<path d="M0 0 C5.75 0.875 5.75 0.875 8 2 C9.87271065 2.15557904 11.74848803 2.27523607 13.625 2.375 C18.98126337 2.76865309 23.1058562 3.83528255 28 6 C28 6.66 28 7.32 28 8 C26.35 8 24.7 8 23 8 C23 7.34 23 6.68 23 6 C19.7 6 16.4 6 13 6 C13 5.34 13 4.68 13 4 C11.88625 4.309375 11.88625 4.309375 10.75 4.625 C7.58378732 5.05675627 6.66594982 4.63396925 4 3 C3.2575 2.62875 2.515 2.2575 1.75 1.875 C1.1725 1.58625 0.595 1.2975 0 1 C0 0.67 0 0.34 0 0 Z " fill="#2E5467" transform="translate(1022,266)"/>
<path d="M0 0 C1.32 0 2.64 0 4 0 C5.46315409 6.5841934 6.15251883 14.5424435 4 21 C3.34 21 2.68 21 2 21 C1.2665547 15.95756356 0.91590327 11.17236145 1.0625 6.078125 C0.99751008 3.9172103 0.59730791 2.07191182 0 0 Z " fill="#314349" transform="translate(141,344)"/>
<path d="M0 0 C0.99 0.33 1.98 0.66 3 1 C1.71937515 2.7074998 0.38232443 4.37373596 -1 6 C-1.66 6 -2.32 6 -3 6 C-3.268125 6.556875 -3.53625 7.11375 -3.8125 7.6875 C-5.82820487 11.61282002 -7.80431118 14.94325417 -11 18 C-11.66 18.99 -12.32 19.98 -13 21 C-12.54177532 17.53058454 -12.10868317 14.32604951 -11 11 C-10.34 11 -9.68 11 -9 11 C-8.34 10.01 -7.68 9.02 -7 8 C-3.44444444 4.22222222 -3.44444444 4.22222222 -1 3 C-0.67 2.01 -0.34 1.02 0 0 Z " fill="#345A70" transform="translate(1027,147)"/>
<path d="M0 0 C2 2 2 2 2.13525391 3.91333008 C2.08288574 4.69087646 2.03051758 5.46842285 1.9765625 6.26953125 C1.8990979 7.58896729 1.8990979 7.58896729 1.82006836 8.93505859 C1.7556958 9.88461426 1.69132324 10.83416992 1.625 11.8125 C0.98578573 22.88792197 0.8979395 33.90942551 1 45 C0.34 45 -0.32 45 -1 45 C-1.16725986 40.46122739 -1.32785453 35.92228756 -1.48217773 31.38305664 C-1.5356662 29.8377441 -1.59100068 28.29249433 -1.64819336 26.74731445 C-1.72991433 24.53089949 -1.8050717 22.31434616 -1.87890625 20.09765625 C-1.90594131 19.4028566 -1.93297638 18.70805695 -1.96083069 17.99220276 C-2.01301108 16.32890224 -2.01185107 14.66407661 -2 13 C-1.67 12.67 -1.34 12.34 -1 12 C-0.76572222 9.98405418 -0.58663876 7.961526 -0.4375 5.9375 C-0.35371094 4.83277344 -0.26992187 3.72804687 -0.18359375 2.58984375 C-0.12300781 1.73519531 -0.06242187 0.88054687 0 0 Z " fill="#179AD1" transform="translate(1059,141)"/>
<path d="M0 0 C5.64014112 0.89729518 5.64014112 0.89729518 7.79296875 1.51171875 C11.79354953 2.39680299 15.91988549 2.34728223 20.00390625 2.5234375 C23.16218769 3.02579778 24.11659867 3.49326655 26 6 C24.54364629 6.22174933 23.08477044 6.42698698 21.625 6.625 C20.81289062 6.74101562 20.00078125 6.85703125 19.1640625 6.9765625 C18.44992187 6.98429687 17.73578125 6.99203125 17 7 C16.34 6.34 15.68 5.68 15 5 C12.11282395 4.3162387 12.11282395 4.3162387 8.875 3.875 C7.77929688 3.70742188 6.68359375 3.53984375 5.5546875 3.3671875 C4.71164062 3.24601562 3.86859375 3.12484375 3 3 C3 2.34 3 1.68 3 1 C2.01 0.67 1.02 0.34 0 0 Z " fill="#236986" transform="translate(1047,271)"/>
<path d="M0 0 C2.05078125 0.03255208 4.1015625 0.06510417 6.15234375 0.09765625 C6.51969069 5.60786033 6.51969069 5.60786033 4.83984375 7.84765625 C2.69015836 9.4400158 0.54758079 10.90003773 -1.84765625 12.09765625 C-1.70328125 11.54078125 -1.55890625 10.98390625 -1.41015625 10.41015625 C-0.81996497 7.9838143 -0.32422725 5.5485928 0.15234375 3.09765625 C-0.83765625 2.43765625 -1.82765625 1.77765625 -2.84765625 1.09765625 C-1.84765625 0.09765625 -1.84765625 0.09765625 0 0 Z " fill="#2A5E74" transform="translate(1142.84765625,156.90234375)"/>
<path d="M0 0 C0.66 0 1.32 0 2 0 C2 0.66 2 1.32 2 2 C2.7425 2.185625 3.485 2.37125 4.25 2.5625 C8.85495787 4.96963707 10.38041545 9.14124634 12 14 C14.01508358 14.73323796 14.01508358 14.73323796 16 15 C16 15.66 16 16.32 16 17 C12.65154016 16.42267934 11.24432069 15.51363917 9 13 C8.154375 12.21625 7.30875 11.4325 6.4375 10.625 C4.07962186 8.08574662 3.02646382 6.26602124 2 3 C1.34 3 0.68 3 0 3 C0 2.01 0 1.02 0 0 Z " fill="#33637D" transform="translate(995,244)"/>
<path d="M0 0 C2.64 0 5.28 0 8 0 C7.67 0.66 7.34 1.32 7 2 C5.35 2 3.7 2 2 2 C2 7.94 2 13.88 2 20 C1.34 20.33 0.68 20.66 0 21 C-1.07875823 13.80827843 -0.7938642 7.21805755 0 0 Z " fill="#344850" transform="translate(87,216)"/>
<path d="M0 0 C0.66 0.33 1.32 0.66 2 1 C2 1.99 2 2.98 2 4 C-12.73786408 5.63106796 -12.73786408 5.63106796 -16 4 C-15.67 3.01 -15.34 2.02 -15 1 C-14.16855469 1.01160156 -13.33710937 1.02320313 -12.48046875 1.03515625 C-10.85044922 1.04869141 -10.85044922 1.04869141 -9.1875 1.0625 C-7.56908203 1.07990234 -7.56908203 1.07990234 -5.91796875 1.09765625 C-2.93487831 1.13624766 -2.93487831 1.13624766 0 0 Z " fill="#314349" transform="translate(141,366)"/>
<path d="M0 0 C0.639375 0.144375 1.27875 0.28875 1.9375 0.4375 C5.32094085 1.05894832 8.68588916 1.40134072 12.109375 1.71875 C14 2 14 2 15 3 C16.51469448 3.23192865 18.03754562 3.41215238 19.5625 3.5625 C20.80193359 3.68818359 20.80193359 3.68818359 22.06640625 3.81640625 C22.70449219 3.87699219 23.34257813 3.93757813 24 4 C24 4.66 24 5.32 24 6 C26.64 6 29.28 6 32 6 C32 6.66 32 7.32 32 8 C25.65557616 7.60089308 19.85519604 6.5470732 13.7578125 4.7578125 C10.17486864 3.77326419 6.56196944 3.13408011 2.8984375 2.52734375 C2.27195312 2.35332031 1.64546875 2.17929687 1 2 C0.67 1.34 0.34 0.68 0 0 Z " fill="#189AD1" transform="translate(1031,266)"/>
<path d="M0 0 C0.66 0.66 1.32 1.32 2 2 C1.01 2.66 0.02 3.32 -1 4 C-1.268125 4.763125 -1.53625 5.52625 -1.8125 6.3125 C-3.45866252 10.0380257 -5.81107316 11.48956823 -9 14 C-9.33 14.66 -9.66 15.32 -10 16 C-10.66 16 -11.32 16 -12 16 C-12 16.99 -12 17.98 -12 19 C-12.66 19 -13.32 19 -14 19 C-14.33 17.35 -14.66 15.7 -15 14 C-13.35 13.67 -11.7 13.34 -10 13 C-10 12.34 -10 11.68 -10 11 C-9.02149805 9.97895449 -8.02019573 8.9793879 -7 8 C-6.67 7.34 -6.34 6.68 -6 6 C-5.34 6 -4.68 6 -4 6 C-3.566875 5.071875 -3.566875 5.071875 -3.125 4.125 C-2 2 -2 2 0 0 Z " fill="#2F373C" transform="translate(1124,186)"/>
<path d="M0 0 C1.32 0 2.64 0 4 0 C3.41463247 3.66060821 1.916761 5.54535164 -0.5625 8.25 C-1.20316406 8.95640625 -1.84382813 9.6628125 -2.50390625 10.390625 C-2.99761719 10.92171875 -3.49132813 11.4528125 -4 12 C-4.66 11.67 -5.32 11.34 -6 11 C-5.34 8.69 -4.68 6.38 -4 4 C-3.34 4 -2.68 4 -2 4 C-1.34 2.68 -0.68 1.36 0 0 Z " fill="#257292" transform="translate(1136,168)"/>
<path d="M0 0 C6.15234375 -0.09765625 6.15234375 -0.09765625 8 0 C8.33 0.33 8.66 0.66 9 1 C11.31952569 1.28101946 13.63885514 1.44782625 15.96875 1.62109375 C16.6390625 1.74613281 17.309375 1.87117187 18 2 C18.33 2.66 18.66 3.32 19 4 C16.77110504 4.05428973 14.54182529 4.09292338 12.3125 4.125 C10.45044922 4.15980469 10.45044922 4.15980469 8.55078125 4.1953125 C5.18762143 4.01032021 3.0014413 3.45767895 0 2 C0 1.34 0 0.68 0 0 Z " fill="#2F5B71" transform="translate(953,222)"/>
<path d="M0 0 C0.66 0 1.32 0 2 0 C2.33 1.32 2.66 2.64 3 4 C2.01 4.33 1.02 4.66 0 5 C-1.17082878 7.92914165 -1.17082878 7.92914165 -2 11 C-2.33 11.66 -2.66 12.32 -3 13 C-3.66 13 -4.32 13 -5 13 C-5 13.99 -5 14.98 -5 16 C-5.66 16 -6.32 16 -7 16 C-7.33 14.35 -7.66 12.7 -8 11 C-6.35 10.67 -4.7 10.34 -3 10 C-3.0928125 8.63875 -3.0928125 8.63875 -3.1875 7.25 C-2.98313144 3.70761168 -2.47346304 2.47346304 0 0 Z " fill="#237599" transform="translate(1100,212)"/>
<path d="M0 0 C1.32 0.33 2.64 0.66 4 1 C4.33 2.98 4.66 4.96 5 7 C1.53058454 6.54177532 -1.67395049 6.10868317 -5 5 C-6.32 5 -7.64 5 -9 5 C-9 4.34 -9 3.68 -9 3 C-4.545 2.505 -4.545 2.505 0 2 C0 1.34 0 0.68 0 0 Z " fill="#189CD6" transform="translate(1111,286)"/>
<path d="M0 0 C0.33 0.66 0.66 1.32 1 2 C-0.32 2 -1.64 2 -3 2 C-3 2.66 -3 3.32 -3 4 C-4.6796875 5.62109375 -4.6796875 5.62109375 -6.875 7.4375 C-9.46193722 9.58400884 -11.11184374 11.16776562 -13 14 C-13.66 14 -14.32 14 -15 14 C-14.41418999 8.72770987 -10.19467393 6.04898199 -6.4375 2.75 C-4.16971819 1.12184895 -2.724966 0.40369867 0 0 Z " fill="#36484F" transform="translate(253,300)"/>
<path d="M0 0 C0 0.99 0 1.98 0 3 C-1.134375 3.268125 -2.26875 3.53625 -3.4375 3.8125 C-8.04705135 4.96078681 -12.51226481 6.45097898 -17 8 C-17.99 8.33 -18.98 8.66 -20 9 C-20 8.34 -20 7.68 -20 7 C-16.77208445 4.8480563 -15.71599191 4.79913557 -12 5 C-12 4.34 -12 3.68 -12 3 C-10.56445975 2.49440092 -9.1264798 1.9957251 -7.6875 1.5 C-6.88699219 1.2215625 -6.08648438 0.943125 -5.26171875 0.65625 C-3 0 -3 0 0 0 Z " fill="#3A434B" transform="translate(1088,172)"/>
<path d="M0 0 C2.31 0.33 4.62 0.66 7 1 C7.33 2.32 7.66 3.64 8 5 C9.32 5 10.64 5 12 5 C12 5.66 12 6.32 12 7 C6.43820225 7.37078652 6.43820225 7.37078652 4.375 5.625 C3.92125 5.08875 3.4675 4.5525 3 4 C0.90010348 2.82425289 0.90010348 2.82425289 -1 2 C-0.67 1.34 -0.34 0.68 0 0 Z " fill="#286D8C" transform="translate(1098,277)"/>
<path d="M0 0 C8.25 0 16.5 0 25 0 C25 0.66 25 1.32 25 2 C12.625 2.495 12.625 2.495 0 3 C0 3.66 0 4.32 0 5 C-0.66 5 -1.32 5 -2 5 C-1.34 3.35 -0.68 1.7 0 0 Z " fill="#2F4247" transform="translate(161,247)"/>
<path d="M0 0 C0.33 0 0.66 0 1 0 C1 2.64 1 5.28 1 8 C-3.62 8 -8.24 8 -13 8 C-12.67 7.34 -12.34 6.68 -12 6 C-8.37 6 -4.74 6 -1 6 C-1 4.35 -1 2.7 -1 1 C-0.67 0.67 -0.34 0.34 0 0 Z " fill="#364950" transform="translate(88,243)"/>
<path d="M0 0 C8.91 0 17.82 0 27 0 C26.67 0.66 26.34 1.32 26 2 C13.625 2.495 13.625 2.495 1 3 C0.67 3.99 0.34 4.98 0 6 C0 4.02 0 2.04 0 0 Z " fill="#323E41" transform="translate(342,247)"/>
<path d="M0 0 C-2.49459173 1.24729587 -4.29682087 1.17414937 -7.0859375 1.24609375 C-8.09914063 1.27896484 -9.11234375 1.31183594 -10.15625 1.34570312 C-12.29416904 1.40667533 -14.43219552 1.46399451 -16.5703125 1.51757812 C-17.58609375 1.55173828 -18.601875 1.58589844 -19.6484375 1.62109375 C-20.57833496 1.6461499 -21.50823242 1.67120605 -22.46630859 1.69702148 C-25.07096113 2.00848552 -26.75241875 2.68248645 -29 4 C-28.67 2.68 -28.34 1.36 -28 0 C-23.89621612 -0.19660714 -19.79196562 -0.3807276 -15.6875 -0.5625 C-14.52025391 -0.61857422 -13.35300781 -0.67464844 -12.15039062 -0.73242188 C-11.03212891 -0.78076172 -9.91386719 -0.82910156 -8.76171875 -0.87890625 C-7.2142395 -0.94960327 -7.2142395 -0.94960327 -5.63549805 -1.02172852 C-3 -1 -3 -1 0 0 Z " fill="#323D3F" transform="translate(458,248)"/>
<path d="M0 0 C-3.11910856 1.79275866 -5.67682428 2.34290718 -9.25 2.625 C-10.14203125 2.69976562 -11.0340625 2.77453125 -11.953125 2.8515625 C-12.96632813 2.92503906 -12.96632813 2.92503906 -14 3 C-14 3.66 -14 4.32 -14 5 C-14.66 5 -15.32 5 -16 5 C-16 4.01 -16 3.02 -16 2 C-10.20377279 -0.32637691 -6.13909603 -1.43680971 0 0 Z " fill="#179BCF" transform="translate(1131,163)"/>
<path d="M0 0 C1.2684375 0.433125 1.2684375 0.433125 2.5625 0.875 C6.02361041 2.00772704 9.49372557 3.01824316 13 4 C13 4.99 13 5.98 13 7 C9.87709365 6.51421457 7.00419641 6.0013988 4 5 C4 4.34 4 3.68 4 3 C2.68 2.67 1.36 2.34 0 2 C0 1.34 0 0.68 0 0 Z " fill="#353536" transform="translate(1106,290)"/>
<path d="M0 0 C0.99 0 1.98 0 3 0 C3 0.66 3 1.32 3 2 C2.34 2 1.68 2 1 2 C0.67 4.31 0.34 6.62 0 9 C-0.99 9 -1.98 9 -3 9 C-3.33 10.32 -3.66 11.64 -4 13 C-4.66 13 -5.32 13 -6 13 C-6 12.01 -6 11.02 -6 10 C-5.34 10 -4.68 10 -4 10 C-2.26337666 6.77484237 -1.1094072 3.48670834 0 0 Z " fill="#355464" transform="translate(1090,229)"/>
<path d="M0 0 C7.42857143 -0.28571429 7.42857143 -0.28571429 11 2 C9.35 2.33 7.7 2.66 6 3 C6.33 3.66 6.66 4.32 7 5 C5.35 5 3.7 5 2 5 C1.34 3.35 0.68 1.7 0 0 Z " fill="#374A51" transform="translate(941,221)"/>
<path d="M0 0 C-2.31881505 2.67901932 -4.31814468 3.66204403 -7.6875 4.6875 C-8.49574219 4.93886719 -9.30398438 5.19023437 -10.13671875 5.44921875 C-11.05904297 5.72185547 -11.05904297 5.72185547 -12 6 C-12 5.01 -12 4.02 -12 3 C-4.71428571 -0.42857143 -4.71428571 -0.42857143 0 0 Z " fill="#179BD0" transform="translate(1087,175)"/>
<path d="M0 0 C1.32 0 2.64 0 4 0 C3.67 0.99 3.34 1.98 3 3 C2.34 3 1.68 3 1 3 C1 3.66 1 4.32 1 5 C-2.63 5 -6.26 5 -10 5 C-10 4.67 -10 4.34 -10 4 C-8.906875 3.855625 -7.81375 3.71125 -6.6875 3.5625 C-3.06877013 3.11711896 -3.06877013 3.11711896 0 2 C0 1.34 0 0.68 0 0 Z " fill="#344F59" transform="translate(984,222)"/>
<path d="M0 0 C5.94 0 11.88 0 18 0 C17.67 0.66 17.34 1.32 17 2 C13.9453125 2.44921875 13.9453125 2.44921875 10.125 2.6875 C8.86945312 2.77386719 7.61390625 2.86023438 6.3203125 2.94921875 C3 3 3 3 0 2 C0 1.34 0 0.68 0 0 Z " fill="#354951" transform="translate(924,369)"/>
<path d="M0 0 C0.99 0.33 1.98 0.66 3 1 C1.73427767 2.15147661 0.46222094 3.29599314 -0.8125 4.4375 C-1.52019531 5.07558594 -2.22789062 5.71367187 -2.95703125 6.37109375 C-5 8 -5 8 -8 9 C-8 9.66 -8 10.32 -8 11 C-8.66 10.67 -9.32 10.34 -10 10 C-9.34 8.68 -8.68 7.36 -8 6 C-7.01 6 -6.02 6 -5 6 C-5 5.34 -5 4.68 -5 4 C-2.6875 1.8125 -2.6875 1.8125 0 0 Z " fill="#33444A" transform="translate(199,252)"/>
<path d="M0 0 C0.99 0.33 1.98 0.66 3 1 C0.03 3.97 -2.94 6.94 -6 10 C-6.66 9.67 -7.32 9.34 -8 9 C-7.67 8.34 -7.34 7.68 -7 7 C-6.34 7 -5.68 7 -5 7 C-5 6.34 -5 5.68 -5 5 C-3.37446717 3.29319053 -1.70884005 1.62339805 0 0 Z " fill="#394E57" transform="translate(480,258)"/>
<path d="M0 0 C0.66 0.33 1.32 0.66 2 1 C2 3.97 2 6.94 2 10 C1.34 10 0.68 10 0 10 C0 9.34 0 8.68 0 8 C-0.66 7.67 -1.32 7.34 -2 7 C-1.34 4.69 -0.68 2.38 0 0 Z " fill="#2B434B" transform="translate(1082,247)"/>
<path d="M0 0 C1.98 0 3.96 0 6 0 C6.66 1.98 7.32 3.96 8 6 C7.01 6.495 7.01 6.495 6 7 C6 5.68 6 4.36 6 3 C5.34 3 4.68 3 4 3 C4 2.34 4 1.68 4 1 C3.01 1 2.02 1 1 1 C1 1.66 1 2.32 1 3 C-0.98 3.33 -2.96 3.66 -5 4 C-5 3.34 -5 2.68 -5 2 C-3.35 2 -1.7 2 0 2 C0 1.34 0 0.68 0 0 Z " fill="#3C373B" transform="translate(1056,132)"/>
<path d="M0 0 C2.31 0 4.62 0 7 0 C7 0.99 7 1.98 7 3 C1.25 4.125 1.25 4.125 -1 3 C-0.67 2.01 -0.34 1.02 0 0 Z " fill="#354950" transform="translate(126,367)"/>
<path d="M0 0 C0.99 0.33 1.98 0.66 3 1 C3.33 2.98 3.66 4.96 4 7 C2.68 7 1.36 7 0 7 C0 4.69 0 2.38 0 0 Z " fill="#2C454D" transform="translate(1119,287)"/>
<path d="M0 0 C3.14737182 0.69941596 6.02588876 1.76078698 9 3 C9 3.66 9 4.32 9 5 C4.545 4.01 4.545 4.01 0 3 C0 2.01 0 1.02 0 0 Z " fill="#2E3030" transform="translate(1070,277)"/>
<path d="M0 0 C1.18851563 0.00902344 2.37703125 0.01804688 3.6015625 0.02734375 C4.51679687 0.03894531 5.43203125 0.05054688 6.375 0.0625 C6.375 0.3925 6.375 0.7225 6.375 1.0625 C5.62734375 1.09988281 4.8796875 1.13726562 4.109375 1.17578125 C3.12453125 1.24152344 2.1396875 1.30726563 1.125 1.375 C0.15046875 1.43300781 -0.8240625 1.49101562 -1.828125 1.55078125 C-4.87841611 2.10886524 -6.33211276 3.02619776 -8.625 5.0625 C-8.625 3.7425 -8.625 2.4225 -8.625 1.0625 C-5.74084117 -0.37957941 -3.20778472 -0.03144887 0 0 Z " fill="#1D2C2C" transform="translate(80.625,247.9375)"/>
<path d="M0 0 C0.99 0 1.98 0 3 0 C2.67 0.99 2.34 1.98 2 3 C-0.28515625 3.94921875 -0.28515625 3.94921875 -3.0625 4.6875 C-4.44115234 5.06455078 -4.44115234 5.06455078 -5.84765625 5.44921875 C-6.55792969 5.63097656 -7.26820313 5.81273437 -8 6 C-8.33 5.34 -8.66 4.68 -9 4 C-8.01 4 -7.02 4 -6 4 C-6 3.34 -6 2.68 -6 2 C-4.02 2 -2.04 2 0 2 C0 1.34 0 0.68 0 0 Z " fill="#34484F" transform="translate(684,246)"/>
<path d="M0 0 C5.66153846 1.47692308 5.66153846 1.47692308 7.375 4.125 C7.684375 5.053125 7.684375 5.053125 8 6 C5.07120629 5.37240135 2.63904371 4.41377341 0 3 C0 2.01 0 1.02 0 0 Z " fill="#37576A" transform="translate(987,238)"/>
<path d="M0 0 C2.64 0 5.28 0 8 0 C8 0.99 8 1.98 8 3 C2.25 3.125 2.25 3.125 0 2 C0 1.34 0 0.68 0 0 Z " fill="#364E58" transform="translate(953,222)"/>
<path d="M0 0 C4.19469571 0.59924224 8.00999834 1.57499941 12 3 C11.67 3.66 11.34 4.32 11 5 C7.44765442 4.39102647 4.2668126 3.54266151 1 2 C0.67 1.34 0.34 0.68 0 0 Z " fill="#2F383B" transform="translate(1022,266)"/>
<path d="M0 0 C2.64 0.33 5.28 0.66 8 1 C8.33 1.99 8.66 2.98 9 4 C5.87709365 3.51421457 3.00419641 3.0013988 0 2 C0 1.34 0 0.68 0 0 Z " fill="#1996CB" transform="translate(974,231)"/>
<path d="M0 0 C0.33 0 0.66 0 1 0 C1.02705729 1.77074917 1.04642195 3.54161711 1.0625 5.3125 C1.07410156 6.29863281 1.08570313 7.28476563 1.09765625 8.30078125 C1 11 1 11 0 14 C-0.66 14 -1.32 14 -2 14 C-2 12.02 -2 10.04 -2 8 C-1.67 8 -1.34 8 -1 8 C-0.67 5.36 -0.34 2.72 0 0 Z " fill="#286D89" transform="translate(1021,210)"/>
<path d="M0 0 C1.65 0.33 3.3 0.66 5 1 C3 4 3 4 -0.125 4.6875 C-1.07375 4.790625 -2.0225 4.89375 -3 5 C-3 4.01 -3 3.02 -3 2 C-2.01 2 -1.02 2 0 2 C0 1.34 0 0.68 0 0 Z " fill="#179BD1" transform="translate(1139,158)"/>
<path d="M0 0 C0.99 0 1.98 0 3 0 C3 0.66 3 1.32 3 2 C5.97 2.495 5.97 2.495 9 3 C9 3.66 9 4.32 9 5 C5.625 4.75 5.625 4.75 2 4 C0.5625 1.9375 0.5625 1.9375 0 0 Z " fill="#343E43" transform="translate(1012,262)"/>
<path d="M0 0 C3.3 0.99 6.6 1.98 10 3 C9.67 3.66 9.34 4.32 9 5 C5.7 4.34 2.4 3.68 -1 3 C-0.67 2.01 -0.34 1.02 0 0 Z " fill="#304A54" transform="translate(973,232)"/>
<path d="M0 0 C1.95917659 0.0868748 3.91741871 0.19504512 5.875 0.3125 C7.51082031 0.39951172 7.51082031 0.39951172 9.1796875 0.48828125 C10.11039063 0.65714844 11.04109375 0.82601562 12 1 C12.66 1.99 13.32 2.98 14 4 C13.01 3.7834375 13.01 3.7834375 12 3.5625 C9.5630717 3.10557594 7.21136074 2.81040684 4.75 2.5625 C2.89375 2.2840625 2.89375 2.2840625 1 2 C0.67 1.34 0.34 0.68 0 0 Z " fill="#312F32" transform="translate(948,227)"/>
<path d="M0 0 C1.32 0 2.64 0 4 0 C2.84607545 3.46177365 1.06206835 6.00667498 -1 9 C-2.0326802 6.21176345 -2.04509293 5.1322726 -1.0625 2.25 C-0.711875 1.5075 -0.36125 0.765 0 0 Z " fill="#474A5A" transform="translate(1106,205)"/>
<path d="M0 0 C1.67542976 0.28604898 3.34385343 0.61781233 5 1 C5 1.66 5 2.32 5 3 C5.66 3.33 6.32 3.66 7 4 C5.35 4.33 3.7 4.66 2 5 C2 4.01 2 3.02 2 2 C1.01 1.67 0.02 1.34 -1 1 C-0.67 0.67 -0.34 0.34 0 0 Z " fill="#374652" transform="translate(964,229)"/>
<path d="M0 0 C0.99 0.33 1.98 0.66 3 1 C2.34 2.65 1.68 4.3 1 6 C0.34 6 -0.32 6 -1 6 C-1 5.34 -1 4.68 -1 4 C-1.66 4 -2.32 4 -3 4 C-2.67 3.01 -2.34 2.02 -2 1 C-1.34 0.67 -0.68 0.34 0 0 Z " fill="#2C3D41" transform="translate(940,220)"/>
<path d="M0 0 C0.33 0.99 0.66 1.98 1 3 C0.67 3.66 0.34 4.32 0 5 C-0.66 5 -1.32 5 -2 5 C-2 5.99 -2 6.98 -2 8 C-2.66 8 -3.32 8 -4 8 C-4.33 6.35 -4.66 4.7 -5 3 C-3.35 2.67 -1.7 2.34 0 2 C0 1.34 0 0.68 0 0 Z " fill="#2E5465" transform="translate(1114,197)"/>
<path d="M0 0 C0 0.99 0 1.98 0 3 C-4.455 3.495 -4.455 3.495 -9 4 C-5.8155864 0.8155864 -4.35822804 0 0 0 Z " fill="#179CD2" transform="translate(1101,169)"/>
<path d="M0 0 C1.65 0 3.3 0 5 0 C5.66 1.32 6.32 2.64 7 4 C5.68 4 4.36 4 3 4 C3 3.34 3 2.68 3 2 C2.01 2 1.02 2 0 2 C0 1.34 0 0.68 0 0 Z " fill="#315263" transform="translate(1094,285)"/>
<path d="M0 0 C2.475 0.99 2.475 0.99 5 2 C5 2.66 5 3.32 5 4 C5.66 4.33 6.32 4.66 7 5 C6.01 5.33 5.02 5.66 4 6 C3.34 5.67 2.68 5.34 2 5 C2 4.01 2 3.02 2 2 C1.34 2 0.68 2 0 2 C0 1.34 0 0.68 0 0 Z " fill="#277DA4" transform="translate(1079,256)"/>
<path d="M0 0 C0.66 0 1.32 0 2 0 C2 0.66 2 1.32 2 2 C4.475 2.99 4.475 2.99 7 4 C7 4.66 7 5.32 7 6 C5.35 5.67 3.7 5.34 2 5 C2 4.34 2 3.68 2 3 C1.34 3 0.68 3 0 3 C0 2.01 0 1.02 0 0 Z " fill="#247BA0" transform="translate(995,244)"/>
<path d="M0 0 C0.33 0.66 0.66 1.32 1 2 C0.67 2.66 0.34 3.32 0 4 C-0.66 4 -1.32 4 -2 4 C-2 4.99 -2 5.98 -2 7 C-2.66 7 -3.32 7 -4 7 C-4.33 5.35 -4.66 3.7 -5 2 C-3.35 1.34 -1.7 0.68 0 0 Z " fill="#2C6074" transform="translate(1097,221)"/>
<path d="M0 0 C1.36125 0.12375 1.36125 0.12375 2.75 0.25 C1.76 0.91 0.77 1.57 -0.25 2.25 C-0.91 2.806875 -1.57 3.36375 -2.25 3.9375 C-2.91 4.370625 -3.57 4.80375 -4.25 5.25 C-5.24 4.92 -6.23 4.59 -7.25 4.25 C-4.83923194 1.28290085 -3.90322061 0.30024774 0 0 Z " fill="#1E8BB9" transform="translate(1117.25,162.75)"/>
<path d="M0 0 C0 0.66 0 1.32 0 2 C-2.90600261 3.25664978 -4.79604584 4 -8 4 C-8 3.34 -8 2.68 -8 2 C-4.91190305 0.23537317 -3.76687864 0 0 0 Z " fill="#273C41" transform="translate(549,366)"/>
<path d="M0 0 C1.27875 -0.061875 2.5575 -0.12375 3.875 -0.1875 C4.95394531 -0.23970703 4.95394531 -0.23970703 6.0546875 -0.29296875 C6.69664063 -0.19628906 7.33859375 -0.09960938 8 0 C8.66 0.99 9.32 1.98 10 3 C6.7 2.67 3.4 2.34 0 2 C0 1.34 0 0.68 0 0 Z " fill="#25799C" transform="translate(1102,289)"/>
<path d="M0 0 C0.66 0.99 1.32 1.98 2 3 C1.125 5.6875 1.125 5.6875 0 8 C-0.99 8 -1.98 8 -3 8 C-2.01 5.36 -1.02 2.72 0 0 Z " fill="#237CA2" transform="translate(1083,239)"/>
<path d="M0 0 C0 2.31 0 4.62 0 7 C-0.99 7.33 -1.98 7.66 -3 8 C-3 5.69 -3 3.38 -3 1 C-1 0 -1 0 0 0 Z " fill="#2E4147" transform="translate(89,236)"/>
<path d="M0 0 C0.99 0 1.98 0 3 0 C1.62845496 2.95409701 0.01136276 5.44008376 -2 8 C-1.125 2.25 -1.125 2.25 0 0 Z " fill="#2D4148" transform="translate(235,315)"/>
<path d="M0 0 C0 0.99 0 1.98 0 3 C-2.64 3.33 -5.28 3.66 -8 4 C-5.29881977 1.17603885 -4.05589853 0 0 0 Z " fill="#276984" transform="translate(1088,172)"/>
<path d="M0 0 C1.60031344 3.20062687 0.03173691 5.72271806 -1 9 C-1.66 8.67 -2.32 8.34 -3 8 C-2.25 2.25 -2.25 2.25 0 0 Z " fill="#1899CF" transform="translate(1017,163)"/>
</svg>
