<?xml version="1.0" encoding="UTF-8"?>
<svg version="1.1" xmlns="http://www.w3.org/2000/svg" width="2560" height="557">
<path d="M0 0 C1.2048555 0.00650322 1.2048555 0.00650322 2.43405151 0.01313782 C3.34672287 0.0214991 3.34672287 0.0214991 4.27783203 0.0300293 C4.34665898 36.47242884 4.39944216 72.91481689 4.43102802 109.35726816 C4.43477966 113.67006365 4.43866267 117.982859 4.44262695 122.2956543 C4.44341388 123.15417114 4.44420082 124.01268798 4.44501159 124.89722048 C4.45802758 138.75631057 4.48166018 152.61536291 4.50929042 166.4744307 C4.53745103 180.7194709 4.55403069 194.96449148 4.56009752 209.20955837 C4.56419198 217.98323526 4.57707299 226.75680543 4.60158143 235.53044944 C4.61757055 241.56566741 4.62220298 247.60083109 4.61833616 253.63606866 C4.61643484 257.10612365 4.61912463 260.57599362 4.63544846 264.04601479 C4.71472125 283.84108412 3.88974711 303.38616187 -1.34716797 322.5925293 C-1.59950195 323.53104736 -1.85183594 324.46956543 -2.11181641 325.43652344 C-9.15828838 350.4364173 -22.12771924 371.14593511 -39.72216797 390.0300293 C-40.65996094 391.0490332 -40.65996094 391.0490332 -41.61669922 392.08862305 C-51.78380308 402.72662435 -63.75616947 410.28940406 -76.72216797 417.0300293 C-77.63224609 417.51213867 -78.54232422 417.99424805 -79.47998047 418.4909668 C-109.18080103 433.10861203 -148.73846991 435.82473187 -180.72216797 428.0300293 C-181.54749023 427.83666992 -182.3728125 427.64331055 -183.22314453 427.4440918 C-206.3229586 421.88985079 -227.1675529 411.62423966 -244.43701172 395.1940918 C-246.78817055 392.89844944 -246.78817055 392.89844944 -249.84716797 390.5925293 C-254.38550237 386.54749211 -257.97251033 381.79834393 -261.72216797 377.0300293 C-262.78951172 375.75579102 -262.78951172 375.75579102 -263.87841797 374.45581055 C-290.32603531 341.63585062 -299.23465949 295.18196341 -294.97216797 253.9675293 C-290.92235979 219.78227518 -275.92006982 189.36016012 -251.72216797 165.0300293 C-251.24021973 164.54405273 -250.75827148 164.05807617 -250.26171875 163.55737305 C-225.03306215 138.47395423 -190.22631706 125.61601346 -154.92657471 125.70611572 C-154.17849548 125.7098822 -153.43041626 125.71364868 -152.65966797 125.7175293 C-151.88870789 125.71968445 -151.1177478 125.7218396 -150.32342529 125.72406006 C-138.24900064 125.77813818 -126.52449897 126.26538397 -114.72216797 129.0300293 C-113.47669189 129.32006836 -113.47669189 129.32006836 -112.20605469 129.6159668 C-98.52983074 132.92831706 -85.33673052 137.77829996 -72.72216797 144.0300293 C-71.86428177 144.41514679 -71.00639557 144.80026428 -70.12251282 145.197052 C-67.72216797 147.0300293 -67.72216797 147.0300293 -67.12089539 149.89640808 C-67.13754997 151.64513969 -67.13754997 151.64513969 -67.15454102 153.42919922 C-67.15344582 154.39545982 -67.15344582 154.39545982 -67.15232849 155.38124084 C-67.15580956 157.50851949 -67.19468714 159.63360257 -67.23388672 161.76049805 C-67.2432132 163.23593448 -67.25033009 164.71138641 -67.25532532 166.18684387 C-67.27440873 170.06870336 -67.32351926 173.94962614 -67.37884521 177.83111572 C-67.43000984 181.79247363 -67.45283328 185.75398303 -67.47802734 189.71557617 C-67.53163828 197.48748741 -67.61696527 205.25862707 -67.72216797 213.0300293 C-71.64760057 212.33140784 -74.05719034 211.36979394 -77.34716797 209.0925293 C-97.78919852 195.7833463 -120.66568747 185.58026168 -145.40966797 185.7175293 C-146.46331543 185.72244385 -147.51696289 185.7273584 -148.60253906 185.73242188 C-172.09083237 186.08339637 -193.02255903 194.33042036 -209.72216797 211.0300293 C-210.35767578 211.66553711 -210.99318359 212.30104492 -211.64794922 212.95581055 C-230.06504754 232.67966529 -233.63408545 259.52954506 -233.03857422 285.3112793 C-232.74850123 292.85525635 -231.9319662 299.77522 -229.72216797 307.0300293 C-229.52349121 307.70388672 -229.32481445 308.37774414 -229.12011719 309.07202148 C-222.12191803 332.35741525 -207.96406775 350.60058849 -186.44091797 362.20581055 C-166.3097673 372.46864557 -140.19563946 374.72822226 -118.52294922 368.3581543 C-108.50140427 365.03043822 -99.7206967 359.92370289 -91.72216797 353.0300293 C-91.05958984 352.51053711 -90.39701172 351.99104492 -89.71435547 351.45581055 C-68.81721804 334.53322671 -60.99415013 306.26282375 -58.19589233 280.62266541 C-57.3660319 271.21491538 -57.56896762 261.75330283 -57.56445312 252.31738281 C-57.55977855 250.11850891 -57.55463393 247.91963596 -57.54905701 245.72076416 C-57.53782192 241.00207677 -57.52936589 236.28339552 -57.52293777 231.56469917 C-57.51221086 224.09600126 -57.49195505 216.62734787 -57.46981812 209.15867615 C-57.43933862 198.68212334 -57.41009989 188.20556934 -57.38427734 177.72900391 C-57.38263916 177.06548382 -57.38100098 176.40196374 -57.37931316 175.71833699 C-57.35302205 164.96361713 -57.3343771 154.20889386 -57.31768544 143.45415545 C-57.30022824 132.38410726 -57.27116084 121.3141277 -57.23279607 110.24413246 C-57.21176969 104.03995406 -57.19627486 97.83587064 -57.1939888 91.63165474 C-57.19183586 85.79648998 -57.17590049 79.9615234 -57.14959908 74.12641907 C-57.14243094 71.99159781 -57.14029298 69.85675249 -57.14370155 67.72192192 C-57.16964956 48.37294486 -55.08816951 31.88344743 -41.06982422 17.2800293 C-29.73531728 6.41700767 -15.97012031 -0.1121062 0 0 Z " fill="#42B449" transform="translate(2059.72216796875,1.969970703125)"/>
<path d="M0 0 C0.75875427 -0.00705963 1.51750854 -0.01411926 2.29925537 -0.02139282 C34.26454954 -0.25133252 34.26454954 -0.25133252 47.79296875 3.203125 C48.59895508 3.40711914 49.40494141 3.61111328 50.23535156 3.82128906 C74.7040087 10.22021082 95.19872543 21.0305505 113.79296875 38.203125 C114.66308594 38.99074219 115.53320312 39.77835938 116.4296875 40.58984375 C145.25625879 67.93098786 160.97911919 108.23501362 162.05693054 147.62693787 C162.11910221 151.2778036 162.12364393 154.92685545 162.10546875 158.578125 C162.10273453 159.72616608 162.10273453 159.72616608 162.09994507 160.8973999 C162.05451278 172.24659385 161.59757713 183.16347129 158.79296875 194.203125 C158.51960693 195.27916992 158.51960693 195.27916992 158.24072266 196.37695312 C148.42029415 234.14909419 124.44302546 267.02591549 90.71875 286.95703125 C89.41233249 287.70952009 88.10382194 288.45839009 86.79296875 289.203125 C85.65214844 289.85152344 84.51132813 290.49992187 83.3359375 291.16796875 C73.91065382 296.18235134 64.09210404 299.47992005 53.79296875 302.203125 C52.78266602 302.47431152 52.78266602 302.47431152 51.75195312 302.75097656 C15.08943567 312.01793449 -28.81037673 304.34295231 -61.234375 285.98828125 C-64.20703125 284.203125 -64.20703125 284.203125 -65.20703125 283.203125 C-65.30116812 281.14755839 -65.32446123 279.08872319 -65.32055664 277.03100586 C-65.32070267 276.38712418 -65.32084869 275.74324249 -65.32099915 275.07984924 C-65.3203001 272.94252197 -65.31250816 270.80528087 -65.3046875 268.66796875 C-65.30282329 267.18966215 -65.3013994 265.71135493 -65.30039978 264.23304749 C-65.29657484 260.33513698 -65.28674477 256.43726351 -65.2756958 252.53936768 C-65.26548117 248.56466167 -65.26090205 244.58994971 -65.25585938 240.61523438 C-65.24512247 232.811181 -65.22804634 225.00715818 -65.20703125 217.203125 C-63.77868568 217.99458584 -62.35059379 218.78650453 -60.92260742 219.57861328 C-60.12731125 220.01956329 -59.33201508 220.46051331 -58.51261902 220.91482544 C-55.4945812 222.60122266 -52.50825975 224.34040831 -49.51953125 226.078125 C-39.63324107 231.72934948 -29.82241249 236.85964782 -19.01953125 240.515625 C-18.30764648 240.75812988 -17.59576172 241.00063477 -16.86230469 241.25048828 C8.03579146 249.305085 34.67508239 246.37948775 57.8046875 234.6796875 C77.04045728 224.18744944 89.29965778 206.55831957 95.54296875 185.828125 C103.5556866 157.53858005 101.26465761 126.71053874 87.14868164 100.69995117 C76.56136365 82.27573999 59.05849964 69.05802302 38.62231445 63.27856445 C16.0627995 57.35757246 -8.41871652 57.97047397 -29.20703125 69.203125 C-30.08488281 69.67105469 -30.96273438 70.13898438 -31.8671875 70.62109375 C-44.75231297 78.12969204 -54.31141676 89.10778372 -61.20703125 102.203125 C-61.7484375 103.22921875 -62.28984375 104.2553125 -62.84765625 105.3125 C-74.32503825 128.61506345 -75.65667415 153.15913283 -75.6394043 178.69604492 C-75.64679597 181.41803762 -75.65864082 184.14000688 -75.67028809 186.86198425 C-75.69290471 192.68335243 -75.70492957 198.50466145 -75.70941734 204.32607079 C-75.71592145 212.74246541 -75.73893266 221.15875388 -75.76576064 229.57510535 C-75.80886586 243.2355207 -75.83892503 256.89593153 -75.8605957 270.55639648 C-75.88165446 283.81325495 -75.90897192 297.07007659 -75.94458008 310.3269043 C-75.9467789 311.14632333 -75.94897773 311.96574236 -75.95124318 312.80999228 C-75.96231405 316.92145417 -75.97350663 321.03291572 -75.98475969 325.14437711 C-76.07771407 359.16392892 -76.14941843 393.18349505 -76.20703125 427.203125 C-78.73108672 427.07962671 -81.25408144 426.94673868 -83.77734375 426.80859375 C-84.48286377 426.77503784 -85.18838379 426.74148193 -85.9152832 426.70690918 C-101.58520681 425.81831535 -114.58959632 418.5521815 -125.20703125 407.203125 C-137.83452631 390.68838959 -138.50766834 373.67691188 -138.46582031 353.72509766 C-138.46853371 351.55067834 -138.4720966 349.37625994 -138.47644043 347.20184326 C-138.48553055 341.31695172 -138.48203266 335.43213059 -138.47568226 329.54723787 C-138.47059831 323.36444702 -138.47532095 317.18166196 -138.47845459 310.99887085 C-138.48208999 300.60714646 -138.47730915 290.21545053 -138.46777344 279.82373047 C-138.45691839 267.85705357 -138.4603947 255.8904537 -138.47142625 243.92377436 C-138.4805456 233.61417424 -138.48176095 223.30459452 -138.47654891 212.99499166 C-138.47345095 206.85369143 -138.47295885 200.71242313 -138.47962189 194.57112503 C-138.48546161 188.78441223 -138.48127913 182.99778604 -138.46983337 177.21108246 C-138.46722058 175.10422025 -138.46789283 172.99735058 -138.4723587 170.89049149 C-138.50634611 153.2053431 -137.81608499 135.47503441 -134.01953125 118.140625 C-133.80304932 117.14297119 -133.58656738 116.14531738 -133.36352539 115.11743164 C-128.16949357 92.18821499 -118.66450981 69.17103348 -103.20703125 51.203125 C-102.48 50.35105469 -101.75296875 49.49898437 -101.00390625 48.62109375 C-98.78696759 46.0979695 -96.51426024 43.64376519 -94.20703125 41.203125 C-93.4490625 40.38070312 -92.69109375 39.55828125 -91.91015625 38.7109375 C-68.88010077 14.55195774 -33.22800484 0.20661712 0 0 Z " fill="#41B548" transform="translate(1249.20703125,127.796875)"/>
<path d="M0 0 C2.48725162 2.19758723 4.91535039 4.443706 7.328125 6.72265625 C8.14925781 7.47933594 8.97039062 8.23601562 9.81640625 9.015625 C35.77850803 33.76643121 47.97184199 69.61403941 50.328125 104.72265625 C50.328125 114.62265625 50.328125 124.52265625 50.328125 134.72265625 C-29.861875 134.72265625 -110.051875 134.72265625 -192.671875 134.72265625 C-189.78581427 147.46593769 -189.78581427 147.46593769 -184.921875 159.09765625 C-184.57898437 159.75701172 -184.23609375 160.41636719 -183.8828125 161.09570312 C-180.78808886 166.86160245 -177.09676311 171.89629901 -172.671875 176.72265625 C-172.06988281 177.40457031 -171.46789063 178.08648437 -170.84765625 178.7890625 C-155.08551902 195.67470637 -129.54480805 207.30398684 -106.671875 208.72265625 C-81.50646248 209.15435354 -61.2256086 197.70548289 -43.49023438 180.62109375 C-34.43416572 172.22660706 -34.43416572 172.22660706 -26.671875 162.72265625 C-21.61934964 164.3473899 -17.76347252 167.35653806 -13.546875 170.47265625 C-12.76642822 171.04322754 -11.98598145 171.61379883 -11.18188477 172.20166016 C-8.67475293 174.03687766 -6.1733638 175.87975693 -3.671875 177.72265625 C-1.97556176 178.96525523 -0.27894846 180.20744469 1.41796875 181.44921875 C3.07584128 182.66492771 4.73340241 183.88106146 6.390625 185.09765625 C7.15068848 185.65549805 7.91075195 186.21333984 8.69384766 186.78808594 C13.97347379 190.68052525 19.16792474 194.67338002 24.328125 198.72265625 C17.27388522 222.72125088 -7.73707524 242.8654231 -28.859375 254.41015625 C-63.27392885 272.46743819 -106.37456305 274.53305431 -143.21484375 263.22265625 C-184.56832695 249.7150078 -220.67147058 223.1370313 -240.60888672 183.91064453 C-258.89623296 146.26912018 -261.81162159 104.46606013 -248.36328125 64.8046875 C-240.95520094 43.75054863 -229.74518966 25.16444943 -214.671875 8.72265625 C-214.17316895 8.17867187 -213.67446289 7.6346875 -213.16064453 7.07421875 C-201.39589697 -5.57780387 -187.9484605 -15.27288981 -172.671875 -23.27734375 C-171.52589844 -23.88320312 -170.37992188 -24.4890625 -169.19921875 -25.11328125 C-113.45387916 -53.43032016 -46.21773723 -39.39318831 0 0 Z M-169.671875 53.72265625 C-179.07381565 65.24873726 -179.07381565 65.24873726 -183.671875 78.72265625 C-129.551875 78.72265625 -75.431875 78.72265625 -19.671875 78.72265625 C-22.45075687 62.04936501 -33.47546646 47.82272754 -47.0234375 38.140625 C-88.80364652 9.72503528 -136.61570673 15.31500195 -169.671875 53.72265625 Z " fill="#41B548" transform="translate(1691.671875,166.27734375)"/>
<path d="M0 0 C0.77557251 -0.00701431 1.55114502 -0.01402863 2.35021973 -0.02125549 C4.84421651 -0.03868307 7.33797578 -0.0451092 9.83203125 -0.046875 C10.68423248 -0.04754974 11.53643372 -0.04822449 12.41445923 -0.04891968 C25.36567166 -0.03262003 37.95167325 0.39576347 50.64453125 3.203125 C51.45325684 3.38004883 52.26198242 3.55697266 53.09521484 3.73925781 C85.90570599 11.16441879 117.96907748 28.37990978 136.88330078 57.08300781 C139.72096026 61.6615132 142.24017371 66.38516239 144.64453125 71.203125 C145.13179687 72.17572266 145.13179687 72.17572266 145.62890625 73.16796875 C155.58991192 93.45739424 158.97257053 114.78237026 158.87158203 137.20239258 C158.87101669 138.9776865 158.87133687 140.75298089 158.87246704 142.52827454 C158.87303676 147.30838583 158.86134472 152.08839508 158.84731913 156.86848283 C158.83474768 161.87859967 158.83363624 166.8887193 158.83126831 171.89884949 C158.82507229 181.36866856 158.80868707 190.83844102 158.78856933 200.30823964 C158.76615164 211.09672107 158.75520218 221.88520483 158.74517846 232.67370379 C158.72431904 254.85020347 158.68917986 277.02666129 158.64453125 299.203125 C156.39310217 299.22300195 154.1416226 299.23721912 151.89013672 299.24902344 C150.00945999 299.26180328 150.00945999 299.26180328 148.09078979 299.27484131 C134.98246355 299.0020583 123.04266031 291.83217639 113.64453125 283.203125 C101.34916865 270.18022615 97.15233558 254.02834754 97.27563477 236.5065918 C97.26998505 234.71350082 97.26998505 234.71350082 97.26422119 232.88418579 C97.2561768 229.64627326 97.26084116 226.40867063 97.27014661 223.17077231 C97.27572016 219.75230051 97.26110447 216.33392311 97.24778748 212.91548157 C97.21185076 202.77342334 97.20535273 192.63137409 97.20788574 182.48925781 C97.20960634 174.59572214 97.20221563 166.70241773 97.16790718 158.80894595 C97.15400478 155.42148794 97.14783685 152.03441752 97.16095161 148.64694786 C97.23397919 125.41935962 95.82991578 103.98336805 78.89306641 86.328125 C61.45589155 68.87325941 38.90376875 60.17277513 14.25952148 59.82226562 C-11.53862132 59.86892039 -34.09402092 65.9767733 -52.79638672 84.64111328 C-72.02353639 104.89792109 -78.91189677 131.51720866 -78.56640625 158.80859375 C-77.87309035 183.13028655 -67.49597311 205.2602057 -50.35546875 222.203125 C-49.26105469 223.31300781 -49.26105469 223.31300781 -48.14453125 224.4453125 C-30.94454244 240.87801556 -8.11834433 245.92925723 14.96875 245.51171875 C31.27927731 244.86037872 46.42267214 237.86379773 58.64453125 227.203125 C59.4540625 226.52507812 60.26359375 225.84703125 61.09765625 225.1484375 C66.51927941 220.4751979 71.0875102 215.47119328 75.53125 209.8671875 C77.51611042 207.36501595 79.55184302 204.92797029 81.64453125 202.515625 C82.20140625 201.87238281 82.75828125 201.22914063 83.33203125 200.56640625 C83.76515625 200.11652344 84.19828125 199.66664063 84.64453125 199.203125 C84.97453125 199.203125 85.30453125 199.203125 85.64453125 199.203125 C85.92332081 209.08650977 86.13615603 218.96895093 86.26627731 228.85547543 C86.32875254 233.44714232 86.41337954 238.03610849 86.54980469 242.6262207 C86.68079322 247.06148557 86.75205718 251.49416477 86.78305817 255.93121529 C86.80512883 257.61838052 86.84823633 259.30541345 86.91329193 260.99146843 C87.40170564 274.18180887 87.40170564 274.18180887 83.03244019 279.20787048 C80.11967779 281.59166886 76.95500224 283.4165297 73.64453125 285.203125 C72.3183686 286.07317898 70.99693109 286.95054835 69.68359375 287.83984375 C40.06930725 305.62874582 4.38331129 310.20360136 -29.35546875 302.5234375 C-60.39928878 294.62909108 -87.86066811 277.90235785 -107.35546875 252.203125 C-107.75620605 251.68266602 -108.15694336 251.16220703 -108.56982422 250.62597656 C-128.16371817 225.0261448 -140.36341698 192.17355701 -140.55859375 159.77734375 C-140.56560806 158.99621216 -140.57262238 158.21508057 -140.57984924 157.41027832 C-140.59725885 154.90366797 -140.60370111 152.39729359 -140.60546875 149.890625 C-140.60614349 149.03586578 -140.60681824 148.18110657 -140.60751343 147.30044556 C-140.59212123 135.05386444 -140.38101985 123.13854369 -137.35546875 111.203125 C-137.09008301 110.13408936 -137.09008301 110.13408936 -136.81933594 109.04345703 C-127.65065364 73.18424969 -106.90219581 41.61279895 -74.9296875 22.0625 C-52.23471829 8.63007167 -26.53551812 0.16127477 0 0 Z " fill="#41B548" transform="translate(2401.35546875,127.796875)"/>
<path d="M0 0 C0 78.21 0 156.42 0 237 C28.61864809 236.92471331 28.61864809 236.92471331 51.74609375 223.13671875 C55.76346597 218.3466301 58.76475269 212.91791161 61.85888672 207.51000977 C63.34331789 204.91578317 64.84365885 202.3308817 66.34329224 199.74542236 C67.1129887 198.41834545 67.88192791 197.09082905 68.65011597 195.76287842 C72.19891678 189.6341744 75.83868354 183.56209889 79.5 177.5 C83.57941883 170.73697051 87.62468659 163.95593033 91.609375 157.13671875 C91.99689941 156.47370758 92.38442383 155.81069641 92.78369141 155.12759399 C94.67819293 151.88427038 96.56891538 148.63880471 98.45507812 145.390625 C99.14188377 144.21221434 99.82873066 143.03382772 100.515625 141.85546875 C101.11665039 140.82059326 101.71767578 139.78571777 102.33691406 138.71948242 C102.88573242 137.82205322 103.43455078 136.92462402 104 136 C104.58461754 134.93991478 104.58461754 134.93991478 105.18104553 133.8584137 C107 132 107 132 110.01823425 131.51898193 C111.2551149 131.52786438 112.49199554 131.53674683 113.76635742 131.54589844 C114.44954544 131.54531433 115.13273346 131.54473022 115.83662415 131.54412842 C118.09342371 131.54691385 120.34890016 131.57802443 122.60546875 131.609375 C124.17059101 131.61683583 125.73572261 131.62252951 127.30085754 131.62652588 C131.41927912 131.64179485 135.53713596 131.68108689 139.65533447 131.7253418 C143.85803589 131.76626766 148.06082861 131.78453111 152.26367188 131.8046875 C160.50937368 131.8475805 168.75461658 131.9158464 177 132 C176.06234884 133.89530139 175.12235298 135.7894429 174.18139648 137.68310547 C173.39659157 139.26549515 173.39659157 139.26549515 172.59593201 140.87985229 C170.27664853 145.41419773 167.69256696 149.76597653 165.0625 154.125 C160.17231521 162.31099068 155.36934916 170.54117516 150.625 178.8125 C118.96410716 233.84800436 118.96410716 233.84800436 102 250 C104.2898987 251.52659913 106.17886384 252.59067846 108.66015625 253.6640625 C117.38835419 257.53341758 124.94152866 261.43135141 132 268 C133.14855469 268.99580078 133.14855469 268.99580078 134.3203125 270.01171875 C148.95104732 283.42735864 155.40398446 303.6899725 157 323 C157.1271619 326.46269381 157.12704432 329.92030115 157.11352539 333.38500977 C157.11367142 334.3811882 157.11381744 335.37736664 157.1139679 336.4037323 C157.11327634 339.66631315 157.10551969 342.92883549 157.09765625 346.19140625 C157.09578938 348.46540801 157.09436674 350.73941017 157.09336853 353.01341248 C157.08956457 358.97605515 157.07975252 364.93867317 157.06866455 370.90130615 C157.05840469 376.99474758 157.05386113 383.08819303 157.04882812 389.18164062 C157.03812824 401.12110454 157.02107746 413.06055021 157 425 C154.64171647 425.04429235 152.2842847 425.07630818 149.92578125 425.1015625 C148.61262939 425.12041504 147.29947754 425.13926758 145.9465332 425.15869141 C131.19010389 424.5653305 118.96797444 416.33715868 109 406 C99.82620924 395.29129483 95.92759592 382.83178087 95.75390625 368.96484375 C95.72094085 367.16731333 95.6877297 365.36978741 95.65429688 363.57226562 C95.60716465 360.76411297 95.5627603 357.95597485 95.52319336 355.14770508 C95.43741347 329.03551968 95.43741347 329.03551968 83.1328125 306.75 C61.64887006 289.12214979 21.62701046 296.37942124 0 296 C0 338.57 0 381.14 0 425 C-17.26660784 425 -32.15492375 422.20927571 -45.02734375 410.15625 C-58.54747308 395.37781161 -62.15875346 379.59427673 -62.13371277 359.97027588 C-62.13597833 358.66517051 -62.13824388 357.36006515 -62.14057809 356.01541114 C-62.14667347 352.40814329 -62.14656517 348.8008987 -62.14538372 345.19362688 C-62.14517914 341.29711077 -62.15070394 337.40060201 -62.15544128 333.50408936 C-62.16373602 325.87571224 -62.16649559 318.24734285 -62.16705366 310.6189616 C-62.16752939 304.415974 -62.16958696 298.21298894 -62.17275429 292.01000214 C-62.1815577 274.4100449 -62.18617416 256.81009375 -62.18542381 239.2101343 C-62.18538386 238.26197162 -62.1853439 237.31380894 -62.18530273 236.33691406 C-62.18526185 235.38758907 -62.18522097 234.43826408 -62.18517885 233.46017167 C-62.18477249 218.07844356 -62.19434048 202.69673995 -62.2084411 187.31501892 C-62.22281677 171.50809251 -62.22971063 155.70117803 -62.22884732 139.89424491 C-62.22851576 131.02513071 -62.23124492 122.15604219 -62.24202538 113.2869339 C-62.25114606 105.73513713 -62.25329277 98.18337767 -62.24651595 90.63157776 C-62.24325864 86.78200288 -62.24316544 82.93249953 -62.2518692 79.08293152 C-62.26122653 74.90112021 -62.25493761 70.71947338 -62.24723816 66.53765869 C-62.25238172 65.33296629 -62.25752529 64.12827389 -62.26282471 62.88707566 C-62.1877113 44.37092567 -57.60195247 29.62530696 -44.9765625 15.78125 C-32.55612565 3.7763668 -16.82332868 0 0 0 Z " fill="#42B548" transform="translate(586,2)"/>
<path d="M0 0 C0.76199707 -0.00067474 1.52399414 -0.00134949 2.30908203 -0.00204468 C13.68036523 0.01396152 24.55436814 0.50550805 35.625 3.25 C36.33366211 3.41097168 37.04232422 3.57194336 37.77246094 3.73779297 C62.41566338 9.38090202 83.91956162 21.46939565 102.625 38.25 C103.51960937 39.0234375 104.41421875 39.796875 105.3359375 40.59375 C132.57513513 64.39661808 149.19557889 98.30613473 152.625 134.25 C152.77014414 136.98627057 152.8110885 139.71723408 152.828125 142.45703125 C152.83518463 143.21578552 152.84224426 143.97453979 152.84951782 144.75628662 C153.07963374 176.74607801 153.07963374 176.74607801 149.625 190.25 C149.41568848 191.07193848 149.20637695 191.89387695 148.99072266 192.74072266 C146.18970831 203.38774886 142.69147881 213.44801839 137.625 223.25 C137.09132813 224.32507813 136.55765625 225.40015625 136.0078125 226.5078125 C129.88897068 238.43532444 121.81795012 248.55292035 112.625 258.25 C111.74328125 259.19617188 110.8615625 260.14234375 109.953125 261.1171875 C84.65969231 287.71552643 48.46239801 304.34465072 11.6822052 305.48304749 C-28.49749981 306.45467134 -66.31314098 298.22337502 -97.375 271.25 C-98.18066406 270.55390625 -98.98632812 269.8578125 -99.81640625 269.140625 C-102.37474969 266.88255661 -104.88181315 264.57976149 -107.375 262.25 C-108.261875 261.42886719 -109.14875 260.60773438 -110.0625 259.76171875 C-135.08973882 235.76543153 -150.040549 201.12232164 -151.53613281 166.5222168 C-151.58221236 162.32710271 -151.62166298 158.13287172 -151.625 153.9375 C-151.62567474 153.17711426 -151.62634949 152.41672852 -151.62704468 151.63330078 C-151.61054431 139.9257492 -151.08874773 128.6846004 -148.375 117.25 C-148.20871094 116.51507324 -148.04242188 115.78014648 -147.87109375 115.02294922 C-138.7168918 75.4988347 -113.76378123 42.2762696 -79.5859375 20.82421875 C-55.40335436 6.26006103 -27.99658207 0.02221592 0 0 Z M-64.65234375 85.21875 C-80.77044691 104.22422311 -87.79464368 127.34142548 -87.6875 152 C-87.68567719 152.66330322 -87.68385437 153.32660645 -87.68197632 154.01000977 C-87.63671642 163.78378809 -87.26284204 172.85581506 -84.375 182.25 C-84.02308594 183.41789062 -83.67117187 184.58578125 -83.30859375 185.7890625 C-79.17033496 198.32675745 -73.18306502 209.40098184 -64.375 219.25 C-63.24964844 220.51650391 -63.24964844 220.51650391 -62.1015625 221.80859375 C-48.80675303 235.94239605 -29.04306026 245.19561175 -9.5769043 246.42700195 C18.54549587 247.02585853 41.0021783 242.30637394 62.24609375 222.625 C81.11939516 203.78268923 88.95365012 178.73990778 89.0625 152.5625 C88.76320055 125.30973714 80.59132288 101.69783788 61.28515625 81.84375 C51.56752693 72.64586423 40.35752017 66.27079584 27.625 62.25 C26.62984375 61.9303125 25.6346875 61.610625 24.609375 61.28125 C-6.48874111 53.00884473 -42.51951351 61.53521191 -64.65234375 85.21875 Z " fill="#42B548" transform="translate(331.375,127.75)"/>
<path d="M0 0 C1.12051758 0.00273422 1.12051758 0.00273422 2.26367188 0.00552368 C13.51203572 0.05168022 24.3006771 0.59808145 35.25 3.3125 C35.95866211 3.47347168 36.66732422 3.63444336 37.39746094 3.80029297 C62.05502541 9.44669082 83.52200841 21.54412608 102.25 38.3125 C103.10980469 39.03953125 103.96960937 39.7665625 104.85546875 40.515625 C132.31487535 64.08967836 149.12678165 99.49300824 152.25 135.3125 C152.59112081 141.22520401 152.59164474 147.1419088 152.5625 153.0625 C152.56034485 153.85342041 152.5581897 154.64434082 152.55596924 155.45922852 C152.50425072 167.30127412 152.12270132 178.76879048 149.25 190.3125 C149.06727539 191.08271484 148.88455078 191.85292969 148.69628906 192.64648438 C142.36333245 218.53985378 129.60889645 240.27749688 111.25 259.3125 C110.00863281 260.66601562 110.00863281 260.66601562 108.7421875 262.046875 C89.30214942 282.61645658 63.47667786 295.59454668 36.25 302.3125 C35.24018066 302.56241699 35.24018066 302.56241699 34.20996094 302.81738281 C-4.02662263 311.7006295 -47.35689283 304.44454807 -80.61328125 283.96875 C-114.98665726 262.12656026 -139.46497419 229.86915973 -148.8046875 189.9765625 C-151.32878032 177.93303388 -151.99019732 166.19117616 -152 153.9375 C-152.00067474 153.17961182 -152.00134949 152.42172363 -152.00204468 151.64086914 C-151.98552724 139.95208015 -151.45938723 128.72872708 -148.75 117.3125 C-148.58371094 116.57757324 -148.41742187 115.84264648 -148.24609375 115.08544922 C-140.63346909 82.2172374 -121.63075511 51.77110046 -94.75 31.3125 C-93.90050781 30.64734375 -93.05101562 29.9821875 -92.17578125 29.296875 C-65.52610619 9.06064939 -33.18936113 -0.16870149 0 0 Z M-66.875 87.58203125 C-83.93970798 107.67972443 -90.20866198 135.10269962 -88.50390625 161.01171875 C-86.43804238 184.7324886 -78.26784494 205.02223786 -61.75 222.3125 C-61.19828125 222.93898438 -60.6465625 223.56546875 -60.078125 224.2109375 C-48.05689639 237.36287573 -27.58347923 245.37416369 -9.9519043 246.48950195 C18.17049587 247.08835853 40.6271783 242.36887394 61.87109375 222.6875 C80.58694167 204.00238418 88.27364398 179.08198124 88.5625 153.125 C88.45900861 125.92878357 80.44977804 102.08716082 61.25 82.3125 C41.99371969 64.15815276 19.64194165 58.60381498 -6.171875 59 C-30.15234914 59.82738841 -50.53031391 70.12566614 -66.875 87.58203125 Z " fill="#41B548" transform="translate(925.75,127.6875)"/>
<path d="M0 0 C0 24.09 0 48.18 0 73 C33.66 73 67.32 73 102 73 C102 92.47 102 111.94 102 132 C68.34 132 34.68 132 0 132 C0.09061254 158.94929688 0.09061254 158.94929688 0.20898438 185.8984375 C0.26343307 196.89126059 0.31484773 207.8840374 0.34643555 218.87695312 C0.36945684 226.88373258 0.40290088 234.89039018 0.44870156 242.89707291 C0.47257818 247.13397455 0.49134331 251.37075592 0.49761391 255.60772324 C0.50369004 259.60179015 0.52378036 263.59554957 0.55427551 267.58950233 C0.56301543 269.04948219 0.56678677 270.50950229 0.56500816 271.96950722 C0.53867952 285.90852631 0.53867952 285.90852631 6.1875 298.375 C13.19371129 304.91413054 20.56395157 306.13163369 29.91137695 306.20532227 C30.69239273 306.21522186 31.47340851 306.22512146 32.27809143 306.23532104 C34.84812434 306.26679567 37.4181757 306.2916377 39.98828125 306.31640625 C41.77475961 306.33698791 43.56123322 306.3579847 45.34770203 306.37937927 C50.04119013 306.43447475 54.73472127 306.48393909 59.42828369 306.53222656 C65.06433044 306.59138388 70.70029883 306.65754273 76.33628082 306.72252655 C84.89080588 306.82037843 93.44538205 306.90934227 102 307 C102 326.47 102 345.94 102 366 C80.39026484 366.12032643 80.39026484 366.12032643 71.09570312 366.14648438 C64.78255538 366.1643366 58.46953961 366.18533095 52.15649414 366.22631836 C47.06010058 366.25919517 41.96384878 366.27691203 36.86735725 366.28463173 C34.93434484 366.29012487 33.00133914 366.3008497 31.06838799 366.31719017 C4.72481582 366.53079471 -17.66079158 360.98406436 -37 342 C-38.04994141 340.98679687 -38.04994141 340.98679687 -39.12109375 339.953125 C-59.07021107 319.26515148 -61.46432862 289.40784373 -61.40405273 262.24511719 C-61.40976705 259.89919716 -61.41673538 257.5532799 -61.42485046 255.20736694 C-61.44267357 248.88534767 -61.44163477 242.563468 -61.43590808 236.24143124 C-61.43240809 230.27603248 -61.4403983 224.31065046 -61.44726873 218.34525695 C-61.46094165 205.81583352 -61.45559133 193.28647284 -61.44408352 180.7570509 C-61.43414085 169.32110004 -61.44711887 157.88531074 -61.47101771 146.44938478 C-61.4954545 134.66612774 -61.50500633 122.88294582 -61.49836498 111.09966397 C-61.49488494 104.50036869 -61.49736492 97.90118179 -61.51461601 91.30190277 C-61.53012475 85.09974802 -61.52608573 78.89790157 -61.50731087 72.69575882 C-61.50363682 70.42749972 -61.50669865 68.15921755 -61.51719666 65.89097977 C-61.59864347 46.83069263 -59.49703183 30.72148178 -45.75 16.1875 C-32.08922924 3.4065755 -18.51843407 0 0 0 Z " fill="#41B449" transform="translate(61,61)"/>
<path d="M0 0 C20.13 0 40.26 0 61 0 C61 96.69 61 193.38 61 293 C41.61063119 293 29.25455736 289.500136 15.32421875 276.48828125 C3.98378542 264.34734674 -0.34343599 249.79328633 -0.24050903 233.53427124 C-0.24221788 232.52934022 -0.24392673 231.52440919 -0.24568737 230.48902571 C-0.24896104 227.14804564 -0.23801366 223.80726992 -0.22705078 220.46630859 C-0.22648621 218.06092331 -0.22680413 215.65553768 -0.22793579 213.25015259 C-0.22844914 207.41343155 -0.21980572 201.57677659 -0.20706047 195.74007063 C-0.19271918 188.94398183 -0.1897663 182.1479022 -0.18748413 175.3518004 C-0.18311512 163.23370589 -0.16982763 151.11563843 -0.15087891 138.99755859 C-0.13249951 127.23128392 -0.1183531 115.46501661 -0.10986328 103.69873047 C-0.10933783 102.97253078 -0.10881239 102.2463311 -0.10827102 101.49812536 C-0.1056608 97.85471836 -0.10313342 94.21131132 -0.10064721 90.56790423 C-0.07993944 60.37857917 -0.04308307 30.18930379 0 0 Z " fill="#41B548" transform="translate(2136,134)"/>
<path d="M0 0 C6.61934015 5.5440465 11.6561705 13.8427017 12.86401367 22.46484375 C12.99910898 24.69429083 13.03053974 26.89175115 13 29.125 C12.99170166 29.91253662 12.98340332 30.70007324 12.97485352 31.51147461 C12.67021285 42.07632612 9.21124204 50.84408194 1.5625 58.3125 C-5.80511528 63.64587106 -13.74865457 65.70785352 -22.75 65.6875 C-23.49548096 65.68588867 -24.24096191 65.68427734 -25.0090332 65.68261719 C-31.13755419 65.54688618 -36.05611017 64.33953178 -41.4375 61.3125 C-43.0153125 60.44625 -43.0153125 60.44625 -44.625 59.5625 C-52.61196568 53.17292746 -56.80809665 46.10168062 -59.1875 36.1875 C-60.1437658 25.19044332 -58.71695192 14.06674998 -51.4375 5.3125 C-38.08071923 -8.92109352 -16.29273191 -11.14112525 0 0 Z " fill="#42B449" transform="translate(2189.4375,44.6875)"/>
</svg>
